<svg xmlns="http://www.w3.org/2000/svg" viewBox="0 0 888.37 888.37"><defs><style>.cls-1{fill:#cf7fb7;}.cls-2,.cls-3,.cls-4,.cls-5{fill:#a00071;}.cls-3,.cls-4,.cls-5{stroke:#cf7fb7;stroke-miterlimit:10;}.cls-3{stroke-width:4px;}.cls-4{stroke-width:59px;}.cls-5{stroke-width:11px;}.cls-6,.cls-7{fill:none;}.cls-7{stroke:#a00071;stroke-linecap:round;stroke-linejoin:round;stroke-width:0;}</style></defs><g id="Layer_2" data-name="Layer 2"><g id="Layer_4" data-name="Layer 4"><path class="cls-1" d="M33.86,274.19a442.69,442.69,0,0,0-33.7,170H444.21Z"/><path class="cls-1" d="M130.22,130.17l314,314-170-410.35A442.73,442.73,0,0,0,130.22,130.17Z"/><path class="cls-1" d="M614.14,33.91l0-.1a442.69,442.69,0,0,0-170-33.7V444.16L614.14,33.91Z"/><path class="cls-1" d="M758.2,130.17l-314,314,410.35-170A442.52,442.52,0,0,0,758.2,130.17Z"/><path class="cls-1" d="M854.51,614.18a442.69,442.69,0,0,0,33.7-170h-444Z"/><path class="cls-1" d="M614.09,854.46l0,.1a442.73,442.73,0,0,0,144-96.36l-314-314L614.09,854.46Z"/><path class="cls-1" d="M444.16,888.26v-444l-170,410.35A442.69,442.69,0,0,0,444.16,888.26Z"/><path class="cls-1" d="M130.17,758.2l314-314-410.35,170A442.52,442.52,0,0,0,130.17,758.2Z"/><path class="cls-2" d="M33.91,614.14,444.16,444.21H0A442.74,442.74,0,0,0,33.91,614.14Z"/><path class="cls-2" d="M34,274.23,444.21,444.16,130.14,130.09A442.7,442.7,0,0,0,34,274.23Z"/><path class="cls-2" d="M274.28,33.91,444.21,444.16V0A442.78,442.78,0,0,0,274.28,33.91Z"/><path class="cls-2" d="M758.28,130.09A442.7,442.7,0,0,0,614.14,33.91h0L444.21,444.16l314-314Z"/><path class="cls-2" d="M854.46,274.23,444.21,444.16H888.37A442.74,442.74,0,0,0,854.46,274.23Z"/><path class="cls-2" d="M854.41,614.14,444.16,444.21,758.22,758.28A442.72,442.72,0,0,0,854.41,614.14Z"/><path class="cls-2" d="M444.16,888.37a442.78,442.78,0,0,0,169.93-33.91h0L444.16,444.21V888.37Z"/><path class="cls-2" d="M130.09,758.28a442.7,442.7,0,0,0,144.14,96.18L444.16,444.21l-314,314Z"/><ellipse class="cls-1" cx="444.18" cy="444.13" rx="444.18" ry="444.13"/><ellipse class="cls-2" cx="444.21" cy="444.13" rx="305.35" ry="305.31"/><ellipse class="cls-3" cx="442.16" cy="444.21" rx="276.35" ry="274.47"/><ellipse class="cls-4" cx="442.87" cy="444.13" rx="223.57" ry="222.05"/><ellipse class="cls-5" cx="439.21" cy="444.21" rx="172.76" ry="171.59"/></g><g id="Layer_5" data-name="Layer 5"><path class="cls-6" d="M621.9,78.85a11.85,11.85,0,0,0-14.45,14.84l5.6,18.66,14-13.53a11.87,11.87,0,0,0-5.17-20Zm3.78,13.3a7.11,7.11,0,1,1-5-8.72A7.07,7.07,0,0,1,625.68,92.15Z"/><polygon class="cls-6" points="734.5 278.69 734.5 278.69 731.75 277.78 737.85 289.87 740.85 280.78 734.5 278.69"/><polygon class="cls-6" points="731.74 273.79 731.11 275.69 733.01 276.32 731.74 273.79"/><path class="cls-6" d="M732.36,271.06l3,6.05,6.49,2.13,5.72-2.88,2.13-6.49-5.91-11.73-14.34,7.24,2.86,5.68Zm5.11-7.71a6.25,6.25,0,0,1,8.39,2.77,2.67,2.67,0,0,1-1.18,3.59,2.72,2.72,0,0,1-1.91.2,2.68,2.68,0,0,1-4.88.23,2.68,2.68,0,1,1,4.78-2.41h0v0a.9.9,0,0,0,1.58-.84,4.46,4.46,0,1,0-4.44,6.45,4.65,4.65,0,0,0,4.13-1.83.89.89,0,0,1,1.39,1.11,6.8,6.8,0,0,1-2.26,1.87,6.25,6.25,0,0,1-5.62-11.17Z"/><polygon class="cls-6" points="742.71 280.84 739.55 290.43 758.01 281.11 748.42 277.95 742.71 280.84"/><path class="cls-6" d="M671.77,181.86a1.13,1.13,0,0,0-1.48-.61l-1,.43,3.5,8.37,1-.43a1.15,1.15,0,0,0,.61-1.49Z"/><path class="cls-6" d="M663.72,182.45a4.84,4.84,0,0,1-2.63-2.61h0l-5.17-12.37a4.85,4.85,0,0,1,2.32-6.21l-3.49-8.34a10,10,0,0,0-4.52,12.68l8.19,19.6a10,10,0,0,0,12.21,5.69l-3.49-8.34A4.8,4.8,0,0,1,663.72,182.45Z"/><polygon class="cls-6" points="758.57 279.42 752.47 267.33 749.47 276.42 758.57 279.42"/><path class="cls-6" d="M741,268.44a.9.9,0,0,0-1.15-.3.88.88,0,0,0-.39,1.19.89.89,0,0,0,1.64-.67A.74.74,0,0,1,741,268.44Z"/><path class="cls-6" d="M740.53,188.05h0l.1,0,0,0,.07,0h.42l.11,0,12.81,2.1a1.28,1.28,0,0,0,1.47-1.06L758,173.82a1.27,1.27,0,0,0-1.06-1.47l-22.92-3.76a1.28,1.28,0,0,0-1.47,1.06l-2.49,15.17a1.29,1.29,0,0,0,1.06,1.47l2.53.41a1.28,1.28,0,0,1,1,1.47l-.44,2.7,6.23-2.82Zm-4.77-14L753.63,177a1.28,1.28,0,0,1-.42,2.53l-17.87-2.93a1.28,1.28,0,0,1,.42-2.53Zm-1.24,7.59a1.29,1.29,0,0,1-1.06-1.48,1.27,1.27,0,0,1,1.47-1L745,180.78a1.28,1.28,0,0,1-.41,2.53Z"/><polygon class="cls-6" points="751.17 265.57 749.27 264.95 750.54 267.47 751.17 265.57"/><path class="cls-6" d="M661.38,159.93a1.11,1.11,0,0,0,.61-.61,1.14,1.14,0,0,0,0-.87l-2.63-6.26a1.11,1.11,0,0,0-.61-.61,1.14,1.14,0,0,0-.87,0l-1,.43,3.5,8.36Z"/><path class="cls-6" d="M830,332.22l9.19-3.68V303.43L830,307.11Zm4.27-18.32.4-1.07a1.15,1.15,0,1,1,2.15.8l-.4,1.08a1.14,1.14,0,0,1-1.08.74,1.12,1.12,0,0,1-.4-.07A1.14,1.14,0,0,1,834.29,313.9Zm-3,5a5.37,5.37,0,0,0,1.36-1.24,1.15,1.15,0,1,1,1.82,1.41,7.8,7.8,0,0,1-1.94,1.77,1.15,1.15,0,1,1-1.24-1.94Z"/><path class="cls-6" d="M768,184.54l-8.85-1.45-1,6.32a3.84,3.84,0,0,1-4.41,3.17l-11.55-1.9-1,6.32a1.3,1.3,0,0,0,1.06,1.48l12.81,2.1a1.31,1.31,0,0,1,.67.32l5,4.67.44-2.69a1.3,1.3,0,0,1,1.48-1.06l2.52.42a1.3,1.3,0,0,0,1.48-1.06L769,186A1.27,1.27,0,0,0,768,184.54Z"/><path class="cls-6" d="M804.58,332.22l9.2-3.68V303.43l-9.2,3.68Zm4.22-15.6a7.83,7.83,0,0,1,1.45-2.18,1.15,1.15,0,0,1,1.62,0,1.16,1.16,0,0,1,0,1.63,5.56,5.56,0,0,0-1,1.53,1.14,1.14,0,0,1-1,.68,1.1,1.1,0,0,1-.47-.1A1.15,1.15,0,0,1,808.8,316.62Zm-1.86,5.44.36-1.09a1.15,1.15,0,0,1,2.19.73l-.37,1.09a1.15,1.15,0,0,1-1.09.78,1.13,1.13,0,0,1-.36-.06A1.15,1.15,0,0,1,806.94,322.06Z"/><path class="cls-6" d="M827.5,322.08a7.76,7.76,0,0,1-2.52-.61,1.15,1.15,0,0,1,.89-2.12,5.59,5.59,0,0,0,1.81.44h0V307.16l-11.64-3.83V312a7.86,7.86,0,0,1,1.37.14,1.15,1.15,0,0,1-.21,2.28l-.22,0a6,6,0,0,0-.94-.1v14.15l11.64,3.84V322.08h-.22Zm-4.77-3.63a1.06,1.06,0,0,1-.54.14,1.16,1.16,0,0,1-1-.61l-.21-.43a6.1,6.1,0,0,0-.81-1.29,1.15,1.15,0,0,1,1.76-1.47,8.33,8.33,0,0,1,1.14,1.8l.15.31A1.14,1.14,0,0,1,822.73,318.45Z"/><path class="cls-6" d="M620.05,85.72a4.74,4.74,0,1,0-2.47,9.16,4.74,4.74,0,0,0,2.47-9.16Z"/><path class="cls-2" d="M622.52,76.56a14.24,14.24,0,0,0-17.35,17.81l6.17,20.52a1.17,1.17,0,0,0,.83.8h0a1.19,1.19,0,0,0,1.12-.3l15.42-14.88a14.24,14.24,0,0,0-6.2-24Zm7.74,16.83a11.91,11.91,0,0,1-3.19,5.43l-14,13.53-5.6-18.66a11.86,11.86,0,1,1,22.81-.3Z"/><path class="cls-2" d="M620.66,83.43a7.12,7.12,0,1,0,5,8.72A7.13,7.13,0,0,0,620.66,83.43Zm2.73,8.1a4.73,4.73,0,0,1-5.81,3.35,4.74,4.74,0,1,1,5.81-3.35Z"/><path class="cls-2" d="M673.86,181a3.41,3.41,0,0,0-4.45-1.83l-2.09.88h0l-.76.32a2.57,2.57,0,0,1-3.37-1.38L658,166.59a2.57,2.57,0,0,1,1.38-3.37l2.85-1.19a3.41,3.41,0,0,0,1.83-4.46l-2.64-6.26a3.39,3.39,0,0,0-4.44-1.82l-2.07.85h0l-.17.07a12.28,12.28,0,0,0-6.59,16l8.2,19.6a12.25,12.25,0,0,0,16,6.58l2.28-.95a3.41,3.41,0,0,0,1.83-4.45Zm-16-29.4a1.14,1.14,0,0,1,.87,0,1.11,1.11,0,0,1,.61.61l2.63,6.26a1.14,1.14,0,0,1,0,.87,1.11,1.11,0,0,1-.61.61l-1,.44-3.5-8.36Zm6,39a10,10,0,0,1-5.43-5.4l-8.19-19.6a10,10,0,0,1,4.52-12.68l3.49,8.34a4.85,4.85,0,0,0-2.32,6.21l5.17,12.37h0a4.85,4.85,0,0,0,6,2.71l3.49,8.34A10,10,0,0,1,663.85,190.6Zm9.94-1-1,.43-3.5-8.37,1-.43a1.13,1.13,0,0,1,1.48.61l2.63,6.27A1.15,1.15,0,0,1,673.79,189.62Z"/><path class="cls-2" d="M768.38,182l-8.85-1.45,1-6.32a3.85,3.85,0,0,0-3.17-4.42l-22.92-3.76a3.85,3.85,0,0,0-4.42,3.17l-2.49,15.17a3.86,3.86,0,0,0,3.17,4.42l1.27.2-.63,3.8a1.29,1.29,0,0,0,.49,1.22,1.38,1.38,0,0,0,.57.25,1.27,1.27,0,0,0,.74-.1l6.23-2.82-.86,5.22a3.84,3.84,0,0,0,3.18,4.41l12.42,2,6.47,6a1.37,1.37,0,0,0,.67.33,1.31,1.31,0,0,0,.62-.06,1.25,1.25,0,0,0,.85-1l.62-3.79,1.27.2a3.84,3.84,0,0,0,4.41-3.17l2.49-15.17A3.84,3.84,0,0,0,768.38,182Zm-34.08,8.86.44-2.7a1.28,1.28,0,0,0-1-1.47l-2.53-.41a1.29,1.29,0,0,1-1.06-1.47l2.49-15.17a1.28,1.28,0,0,1,1.47-1.06L757,172.35a1.27,1.27,0,0,1,1.06,1.47L755.55,189a1.28,1.28,0,0,1-1.47,1.06L741.27,188l-.11,0h-.42l-.07,0,0,0-.1,0h0Zm32.24,10.31a1.3,1.3,0,0,1-1.48,1.06l-2.52-.42a1.3,1.3,0,0,0-1.48,1.06l-.44,2.69-5-4.67a1.31,1.31,0,0,0-.67-.32l-12.81-2.1a1.3,1.3,0,0,1-1.06-1.48l1-6.32,11.55,1.9a3.84,3.84,0,0,0,4.41-3.17l1-6.32,8.85,1.45a1.27,1.27,0,0,1,1,1.47Z"/><path class="cls-2" d="M746.1,182.25a1.28,1.28,0,0,0-1.06-1.47l-10.11-1.66a1.27,1.27,0,0,0-1.47,1,1.29,1.29,0,0,0,1.06,1.48l10.11,1.66A1.28,1.28,0,0,0,746.1,182.25Z"/><path class="cls-2" d="M735.34,176.59l17.87,2.93a1.28,1.28,0,0,0,.42-2.53l-17.87-2.93a1.28,1.28,0,0,0-.42,2.53Z"/><path class="cls-2" d="M753.09,264.6h0l0-.07,0,0,0-.05,0,0,0,0,0,0,0,0,0,0,0,0,0,0,0,0,0,0,0,0-.07,0h0l-4.44-1.47-3.1-6.15a.89.89,0,0,0-1.2-.39l-15.94,8a.89.89,0,0,0-.39,1.2l3.1,6.15L729.14,276h0a.31.31,0,0,0,0,.08.08.08,0,0,0,0,0s0,0,0,0v.05s0,0,0,0v0a.09.09,0,0,1,0,.05v0a.06.06,0,0,0,0,0s0,0,0,0a.09.09,0,0,0,0,.05s0,0,0,0v0a.25.25,0,0,0,0,.07h0L736.42,291a2.66,2.66,0,0,0,1.52,1.32l0,0h0a2.69,2.69,0,0,0,2-.16l19.12-9.65a2.61,2.61,0,0,0,1.32-1.51l0,0s0,0,0-.05a2.66,2.66,0,0,0-.16-2Zm5.48,14.82-9.1-3,3-9.09Zm-7.4-13.85-.63,1.9L749.27,265Zm-21.67-.19,14.34-7.24,5.91,11.73-2.13,6.49-5.72,2.88-6.49-2.13-3-6.05h0Zm2.24,8.41,1.27,2.53-1.9-.63Zm0,4,2.75.91h0l6.35,2.09-3,9.09Zm7.8,12.65,3.15-9.59,5.72-2.88,9.59,3.15Z"/><line class="cls-7" x1="734.5" y1="278.69" x2="734.5" y2="278.69"/><path class="cls-2" d="M739.65,275.15a6.23,6.23,0,0,0,3.44-.63,6.8,6.8,0,0,0,2.26-1.87.89.89,0,0,0-1.39-1.11,4.65,4.65,0,0,1-4.13,1.83,4.46,4.46,0,1,1,4.44-6.45.9.9,0,0,1-1.58.84v0h0a2.68,2.68,0,1,0,.1,2.18,2.72,2.72,0,0,0,1.91-.2,2.67,2.67,0,0,0,1.18-3.59,6.25,6.25,0,1,0-6.21,9Zm1-5.42a.9.9,0,0,1-1.2-.4.88.88,0,0,1,.39-1.19.9.9,0,0,1,1.15.3.74.74,0,0,0,.1.22A.9.9,0,0,1,740.69,269.73Z"/><path class="cls-2" d="M841,300.78a1.16,1.16,0,0,0-1.07-.11l-11.11,4.44-13.54-4.47h-.06l-.06,0h-.41l-.08,0h0l-.09,0h0L803,305.27a1.13,1.13,0,0,0-.72,1.06v27.59a1.13,1.13,0,0,0,1.14,1.14,1.06,1.06,0,0,0,.43-.08l11.1-4.44L828.51,335l.09,0h0a1.09,1.09,0,0,0,.26,0h0a1.1,1.1,0,0,0,.35-.05h0l.07,0,11.49-4.59a1.15,1.15,0,0,0,.72-1.07V301.74A1.18,1.18,0,0,0,841,300.78Zm-27.23,27.76-9.2,3.68V307.11l9.2-3.68Zm13.94,3.79-11.64-3.84V314.34a6,6,0,0,1,.94.1l.22,0a1.15,1.15,0,0,0,.21-2.28,7.86,7.86,0,0,0-1.37-.14v-8.71l11.64,3.83V319.8h0a5.59,5.59,0,0,1-1.81-.44,1.15,1.15,0,0,0-.89,2.12,7.76,7.76,0,0,0,2.52.61h.22Zm11.49-3.79L830,332.22V307.11l9.19-3.68Z"/><path class="cls-2" d="M807.67,323.51a1.13,1.13,0,0,0,.36.06,1.15,1.15,0,0,0,1.09-.78l.37-1.09a1.15,1.15,0,0,0-2.19-.73l-.36,1.09A1.15,1.15,0,0,0,807.67,323.51Z"/><path class="cls-2" d="M823.05,316.59a8.33,8.33,0,0,0-1.14-1.8,1.15,1.15,0,0,0-1.76,1.47,6.1,6.1,0,0,1,.81,1.29l.21.43a1.16,1.16,0,0,0,1,.61,1.06,1.06,0,0,0,.54-.14,1.14,1.14,0,0,0,.47-1.55Z"/><path class="cls-2" d="M831.87,321a1.15,1.15,0,0,0,.62-.18,7.8,7.8,0,0,0,1.94-1.77,1.15,1.15,0,1,0-1.82-1.41,5.37,5.37,0,0,1-1.36,1.24,1.15,1.15,0,0,0,.62,2.12Z"/><path class="cls-2" d="M809.38,318.14a1.1,1.1,0,0,0,.47.1,1.14,1.14,0,0,0,1-.68,5.56,5.56,0,0,1,1-1.53,1.16,1.16,0,0,0,0-1.63,1.15,1.15,0,0,0-1.62,0,7.83,7.83,0,0,0-1.45,2.18A1.15,1.15,0,0,0,809.38,318.14Z"/><path class="cls-2" d="M835,315.38a1.12,1.12,0,0,0,.4.07,1.14,1.14,0,0,0,1.08-.74l.4-1.08a1.15,1.15,0,1,0-2.15-.8l-.4,1.07A1.14,1.14,0,0,0,835,315.38Z"/><path class="cls-6" d="M849.4,415.37a11.85,11.85,0,0,0-20.08-5.09L816,424.46l18.72,5.37a11.72,11.72,0,0,0,6.3.05A11.87,11.87,0,0,0,849.4,415.37Zm-9.63,9.93a7.12,7.12,0,0,1-7-11.77,7.12,7.12,0,0,1,12,3.06A7.13,7.13,0,0,1,839.77,425.3Z"/><polygon class="cls-6" points="732.64 612.81 732.63 612.81 732.04 609.97 724.63 621.3 734 619.35 732.64 612.81"/><polygon class="cls-6" points="735.5 607.97 733.53 608.37 733.94 610.33 735.5 607.97"/><path class="cls-6" d="M738.17,607.14l-3.71,5.66,1.39,6.69,5.36,3.51,6.68-1.39,7.2-11-13.43-8.8-3.49,5.32Zm9.23.57a6.25,6.25,0,0,1,1.8,8.65,2.68,2.68,0,0,1-4.83-.78,2.64,2.64,0,0,1-1.86-.4,2.68,2.68,0,1,1,3.7-.78v0l0,0a.89.89,0,0,0,1.52.94,4.46,4.46,0,1,0-7.8-.61,4.62,4.62,0,0,0,3.64,2.65.89.89,0,0,1,.75,1,.9.9,0,0,1-1,.75,7,7,0,0,1-2.75-1,6.11,6.11,0,0,1-2.26-2.66,6.25,6.25,0,0,1,9.12-7.79Z"/><polygon class="cls-6" points="734.87 620.99 724.99 623.05 742.29 634.38 740.23 624.5 734.87 620.99"/><path class="cls-6" d="M785.13,510.06a1.13,1.13,0,0,0-.22-1.59l-.9-.68-5.5,7.21.91.69a1.13,1.13,0,0,0,1.58-.21Z"/><path class="cls-6" d="M780.59,503.4a4.8,4.8,0,0,1,.94-3.59h0l8.14-10.66a4.83,4.83,0,0,1,6.53-1.1l5.48-7.19a10,10,0,0,0-13.25,2.42l-12.88,16.9a10,10,0,0,0,1.19,13.42l5.47-7.2A4.79,4.79,0,0,1,780.59,503.4Z"/><polygon class="cls-6" points="744.03 634.01 751.45 622.69 742.08 624.64 744.03 634.01"/><path class="cls-6" d="M744.77,613.34a.9.9,0,1,0-.14.2A1.43,1.43,0,0,1,744.77,613.34Z"/><path class="cls-6" d="M814.15,572.71h0a.27.27,0,0,1,.08.07l0,0,0,.05,0,0,0,.05,0,0,.06.09,0,0,0,.07,0,0s0,.07,0,.11l4.59,12.14a1.28,1.28,0,0,0,1.65.75l14.38-5.43a1.28,1.28,0,0,0,.75-1.65l-8.21-21.73a1.28,1.28,0,0,0-1.65-.75l-14.38,5.43a1.28,1.28,0,0,0-.75,1.65l.91,2.4a1.28,1.28,0,0,1-.75,1.65l-2.55,1,5.55,4Zm9.72-11.13,6.4,16.94a1.28,1.28,0,0,1-2.4.91l-6.39-16.94a1.28,1.28,0,0,1,2.39-.91Zm-7.19,2.72a1.28,1.28,0,0,1,2.4-.91L822.7,573a1.28,1.28,0,0,1-2.4.91Z"/><polygon class="cls-6" points="752.33 620.68 751.92 618.73 750.37 621.09 752.33 620.68"/><path class="cls-6" d="M798.91,490.1a1.14,1.14,0,0,0,1.59-.21l4.11-5.41a1.14,1.14,0,0,0-.21-1.59l-.89-.69-5.5,7.21Z"/><path class="cls-6" d="M734,722.29l7.78,6.13,21.74-12.56-7.78-6.12Zm18-5.46,1.13-.19a1.15,1.15,0,1,1,.38,2.27l-1.13.19a1.17,1.17,0,0,1-1.19-.56,1.28,1.28,0,0,1-.13-.39A1.14,1.14,0,0,1,752,716.83Zm-5.86-.12a5.2,5.2,0,0,0,1.75.56,1.14,1.14,0,0,1,1,1.29,1.15,1.15,0,0,1-1.29,1,7.7,7.7,0,0,1-2.5-.8,1.13,1.13,0,0,1-.49-1.55A1.15,1.15,0,0,1,746.17,716.71Z"/><path class="cls-6" d="M830.9,594.71l-3.16-8.39-6,2.27a3.85,3.85,0,0,1-5-2.24l-4.13-11-6,2.27a1.28,1.28,0,0,0-.75,1.65l4.58,12.14a1.25,1.25,0,0,1,0,.74L809,598.87l2.56-1a1.28,1.28,0,0,1,1.65.74l.9,2.4a1.3,1.3,0,0,0,1.66.75l14.38-5.43A1.29,1.29,0,0,0,830.9,594.71Z"/><path class="cls-6" d="M721.32,700.27l7.78,6.12,21.74-12.55-7.78-6.13Zm15.61-4.15a7.59,7.59,0,0,1,2.61.17,1.14,1.14,0,0,1,.85,1.38,1.15,1.15,0,0,1-1.39.85,5.64,5.64,0,0,0-1.84-.12,1.15,1.15,0,1,1-.23-2.28Zm-5.64,1.11,1.13-.23a1.15,1.15,0,0,1,1.36.89,1.17,1.17,0,0,1-.9,1.36l-1.13.23a1.14,1.14,0,0,1-1.22-.55,1.05,1.05,0,0,1-.13-.35A1.14,1.14,0,0,1,731.29,697.23Z"/><path class="cls-6" d="M741.55,715.05a8.24,8.24,0,0,1-.73-2.5,1.15,1.15,0,0,1,2.28-.28,5.76,5.76,0,0,0,.53,1.79s0,0,0,0l10.94-6.31-2.5-12-7.54,4.36a9.52,9.52,0,0,1,.57,1.26,1.15,1.15,0,0,1-2.08,1l-.1-.2a5.59,5.59,0,0,0-.38-.87l-12.26,7.07,2.5,12,8.88-5.13a.36.36,0,0,1-.07-.1Zm.76-5.95a1.24,1.24,0,0,1-.39-.4,1.18,1.18,0,0,1,0-1.19l.26-.39a5.51,5.51,0,0,0,.72-1.35,1.15,1.15,0,1,1,2.15.79,7.88,7.88,0,0,1-1,1.88l-.19.29A1.15,1.15,0,0,1,742.31,709.1Z"/><path class="cls-6" d="M842.52,417.2a4.74,4.74,0,1,0-3.36,5.81A4.75,4.75,0,0,0,842.52,417.2Z"/><path class="cls-2" d="M851.69,414.76a14.23,14.23,0,0,0-24.1-6.11l-14.68,15.6a1.21,1.21,0,0,0-.29,1.12h0a1.17,1.17,0,0,0,.81.82l20.6,5.91a14.23,14.23,0,0,0,17.65-17.35ZM841,429.88a11.72,11.72,0,0,1-6.3-.05L816,424.46l13.35-14.18A11.86,11.86,0,1,1,841,429.88Z"/><path class="cls-2" d="M844.81,416.59a7.12,7.12,0,1,0-5,8.71A7.11,7.11,0,0,0,844.81,416.59ZM839.16,423a4.74,4.74,0,1,1,3.36-5.81A4.75,4.75,0,0,1,839.16,423Z"/><path class="cls-2" d="M786.93,511.44a3.41,3.41,0,0,0-.64-4.77l-1.81-1.37h0l-.65-.5a2.58,2.58,0,0,1-.49-3.61l8.13-10.67a2.54,2.54,0,0,1,1.7-1,2.6,2.6,0,0,1,1.91.5l2.46,1.88a3.41,3.41,0,0,0,4.77-.65l4.11-5.41a3.41,3.41,0,0,0-.64-4.76L804,479.72h0l-.15-.12a12.28,12.28,0,0,0-17.19,2.33L773.75,498.8a12.28,12.28,0,0,0,2.32,17.2l2,1.5a3.42,3.42,0,0,0,4.77-.65Zm17.47-28.55a1.14,1.14,0,0,1,.21,1.59l-4.11,5.41a1.14,1.14,0,0,1-1.59.21l-.9-.69,5.5-7.21Zm-30.8,24.69a9.91,9.91,0,0,1,1.95-7.4l12.88-16.9a10,10,0,0,1,13.25-2.42l-5.48,7.19a4.83,4.83,0,0,0-6.53,1.1l-8.14,10.66h0a4.85,4.85,0,0,0,.68,6.59l-5.47,7.2A9.89,9.89,0,0,1,773.6,507.58Zm5.82,8.11-.91-.69,5.5-7.21.9.68a1.13,1.13,0,0,1,.22,1.59L781,515.48A1.13,1.13,0,0,1,779.42,515.69Z"/><path class="cls-2" d="M833.3,593.81l-3.17-8.39,6-2.26a3.85,3.85,0,0,0,2.23-5l-8.2-21.73a3.86,3.86,0,0,0-5-2.24l-14.38,5.43a3.85,3.85,0,0,0-2.23,5l.45,1.2-3.6,1.35a1.32,1.32,0,0,0-.82,1,1.28,1.28,0,0,0,.08.62,1.19,1.19,0,0,0,.45.59l5.56,4-5,1.87a3.85,3.85,0,0,0-2.24,5L808,592l-2,8.63a1.25,1.25,0,0,0,0,.74,1.26,1.26,0,0,0,.35.51,1.29,1.29,0,0,0,1.3.23l3.6-1.35.45,1.19a3.84,3.84,0,0,0,4.95,2.24l14.38-5.43A3.85,3.85,0,0,0,833.3,593.81Zm-24.71-25.09,2.55-1a1.28,1.28,0,0,0,.75-1.65l-.91-2.4a1.28,1.28,0,0,1,.75-1.65l14.38-5.43a1.28,1.28,0,0,1,1.65.75L836,579.11a1.28,1.28,0,0,1-.75,1.65l-14.38,5.43a1.28,1.28,0,0,1-1.65-.75L814.6,573.3s0-.07,0-.11l0,0,0-.07,0,0-.06-.09,0,0,0-.05,0,0,0-.05,0,0a.27.27,0,0,0-.08-.07h0Zm7.19,33.08a1.3,1.3,0,0,1-1.66-.75l-.9-2.4a1.28,1.28,0,0,0-1.65-.74l-2.56,1,1.54-6.67a1.25,1.25,0,0,0,0-.74l-4.58-12.14a1.28,1.28,0,0,1,.75-1.65l6-2.27,4.13,11a3.85,3.85,0,0,0,5,2.24l6-2.27,3.16,8.39a1.29,1.29,0,0,1-.74,1.66Z"/><path class="cls-2" d="M822,574.63a1.28,1.28,0,0,0,.75-1.65l-3.62-9.59a1.28,1.28,0,0,0-2.4.91l3.62,9.59A1.28,1.28,0,0,0,822,574.63Z"/><path class="cls-2" d="M821.48,562.49l6.39,16.94a1.28,1.28,0,0,0,2.4-.91l-6.4-16.94a1.28,1.28,0,0,0-2.39.91Z"/><path class="cls-2" d="M754.13,621.87h0s0,0,0-.08l0,0s0,0,0,0v0l0,0s0,0,0,0a.09.09,0,0,1,0-.05v0a.06.06,0,0,0,0,0v-.18s0,0,0-.07v0h0l-1-4.58,3.78-5.76a.89.89,0,0,0-.26-1.23l-14.93-9.78a.9.9,0,0,0-1.24.25l-3.77,5.76-4.58,1h0l-.09,0h0l0,0,0,0,0,0,0,0,0,0,0,0,0,0,0,0,0,0,0,0,0,0a.18.18,0,0,0,0,.07h0l-8.8,13.44a2.67,2.67,0,0,0-.39,2v0s0,0,0,.05a2.71,2.71,0,0,0,1.14,1.65l17.92,11.73a2.61,2.61,0,0,0,2,.39h0l0,0a2.59,2.59,0,0,0,1.64-1.14ZM744,634l-1.95-9.37,9.37-1.95Zm8.3-13.32-2,.4,1.55-2.36Zm-10.67-18.87,13.43,8.8-7.2,11L741.21,623l-5.36-3.51-1.39-6.69,3.71-5.66h0ZM735.49,608l-1.55,2.36-.4-2Zm-3.44,2,.59,2.84h0l1.36,6.54-9.37,1.95ZM725,623.05l9.88-2.06,5.36,3.5,2.06,9.89Z"/><line class="cls-7" x1="732.64" y1="612.81" x2="732.64" y2="612.81"/><path class="cls-2" d="M738.28,615.5a6.11,6.11,0,0,0,2.26,2.66,7,7,0,0,0,2.75,1,.9.9,0,0,0,1-.75.89.89,0,0,0-.75-1,4.62,4.62,0,0,1-3.64-2.65,4.46,4.46,0,1,1,7.8.61.89.89,0,0,1-1.52-.94l0,0v0a2,2,0,1,0,3,2,6.25,6.25,0,1,0-10.92-.86Zm5.2-1.82a.89.89,0,1,1,1.29-.34,1.43,1.43,0,0,0-.14.2A.88.88,0,0,1,743.48,613.68Z"/><path class="cls-2" d="M766.75,716.09a1.13,1.13,0,0,0-.44-1l-9.39-7.4-2.91-14a.43.43,0,0,0,0,0,.64.64,0,0,0,0-.07l0-.07a.14.14,0,0,0,0-.06l0-.06,0-.06,0-.06,0-.05,0-.06,0,0-.07-.06,0,0-9.73-7.66a1.17,1.17,0,0,0-1.29-.09L718.7,699.12a1.14,1.14,0,0,0-.57.92,1,1,0,0,0,.15.65,1,1,0,0,0,.28.33l9.4,7.4,2.9,14,0,.1h0a1,1,0,0,0,.11.24h0a1.13,1.13,0,0,0,.22.27h0l.06,0,9.73,7.66a1.15,1.15,0,0,0,1.28.09L766.18,717A1.17,1.17,0,0,0,766.75,716.09Zm-37.65-9.7-7.78-6.12,21.74-12.56,7.78,6.13Zm3.69,14-2.5-12,12.26-7.07a5.59,5.59,0,0,1,.38.87l.1.2a1.15,1.15,0,0,0,2.08-1,9.52,9.52,0,0,0-.57-1.26l7.54-4.36,2.5,12-10.94,6.31s0,0,0,0a5.76,5.76,0,0,1-.53-1.79,1.15,1.15,0,0,0-2.28.28,8.24,8.24,0,0,0,.73,2.5l.05.08a.36.36,0,0,0,.07.1Zm9,8.06L734,722.29l21.74-12.55,7.78,6.12Z"/><path class="cls-2" d="M730.4,698.58a1.05,1.05,0,0,0,.13.35,1.14,1.14,0,0,0,1.22.55l1.13-.23a1.17,1.17,0,0,0,.9-1.36,1.15,1.15,0,0,0-1.36-.89l-1.13.23A1.14,1.14,0,0,0,730.4,698.58Z"/><path class="cls-2" d="M744.08,708.44a7.88,7.88,0,0,0,1-1.88,1.15,1.15,0,1,0-2.15-.79,5.51,5.51,0,0,1-.72,1.35l-.26.39a1.18,1.18,0,0,0,0,1.19,1.24,1.24,0,0,0,.39.4,1.15,1.15,0,0,0,1.58-.37Z"/><path class="cls-2" d="M744.64,718.31a1.17,1.17,0,0,0,.47.44,7.7,7.7,0,0,0,2.5.8,1.15,1.15,0,0,0,1.29-1,1.14,1.14,0,0,0-1-1.29,5.2,5.2,0,0,1-1.75-.56,1.15,1.15,0,0,0-1.55.49A1.18,1.18,0,0,0,744.64,718.31Z"/><path class="cls-2" d="M735.9,697.38a1.16,1.16,0,0,0,1.26,1,5.64,5.64,0,0,1,1.84.12,1.15,1.15,0,0,0,1.39-.85,1.14,1.14,0,0,0-.85-1.38,7.59,7.59,0,0,0-2.61-.17A1.15,1.15,0,0,0,735.9,697.38Z"/><path class="cls-2" d="M751.09,718.15a1.28,1.28,0,0,0,.13.39,1.17,1.17,0,0,0,1.19.56l1.13-.19a1.15,1.15,0,1,0-.38-2.27l-1.13.19A1.14,1.14,0,0,0,751.09,718.15Z"/><path class="cls-6" d="M672.13,780.41a11.87,11.87,0,0,0-5.62-19.94l-19-4.47,4.71,18.9a11.86,11.86,0,0,0,19.87,5.51ZM658.72,777a7.11,7.11,0,1,1,10.06,0A7.05,7.05,0,0,1,658.72,777Z"/><polygon class="cls-6" points="442.77 778.01 442.77 778.01 444.93 776.08 431.41 775.32 437.79 782.46 442.77 778.01"/><polygon class="cls-6" points="448.39 778.06 447.06 776.57 445.56 777.9 448.39 778.06"/><path class="cls-6" d="M450.44,780l-6.76-.38-5.1,4.55-.36,6.39,4.55,5.09,13.12.74.9-16-6.35-.36Zm4.12,8.27a6.26,6.26,0,0,1-6.59,5.89,2.68,2.68,0,0,1-1.74-4.57,2.64,2.64,0,0,1-.58-1.82,2.68,2.68,0,1,1,2.52,2.83h0a.91.91,0,0,0-.9.85.89.89,0,0,0,.84.94,4.46,4.46,0,1,0-3.37-7.07,4.64,4.64,0,0,0-.47,4.49.89.89,0,1,1-1.66.65,6.86,6.86,0,0,1-.49-2.89,6.25,6.25,0,0,1,12.48.71Z"/><polygon class="cls-6" points="436.8 784.04 430.08 776.51 428.91 797.15 436.44 790.43 436.8 784.04"/><path class="cls-6" d="M558,772.1a1.14,1.14,0,0,0,1.27-1l.14-1.13-9-1.15-.15,1.12a1.14,1.14,0,0,0,1,1.27Z"/><path class="cls-6" d="M561.5,764.83a4.77,4.77,0,0,1,3.57-1h0l13.3,1.71a4.84,4.84,0,0,1,4.22,5.11l9,1.15a10,10,0,0,0-8.72-10.27l-21.08-2.7a10,10,0,0,0-11,7.73l9,1.15A4.81,4.81,0,0,1,561.5,764.83Z"/><polygon class="cls-6" points="430.1 798.48 443.62 799.25 437.24 792.11 430.1 798.48"/><path class="cls-6" d="M448.37,788.78a.88.88,0,0,0,.84-.84.89.89,0,1,0-1.08.82A1,1,0,0,1,448.37,788.78Z"/><path class="cls-6" d="M518.25,828.55h0s0,.07,0,.11v0s0,0,0,.06v0l0,.07s0,0,0,0l0,.09,0,0a.21.21,0,0,1,0,.06l0,0-.07.09-8.22,10a1.29,1.29,0,0,0,.18,1.81l11.89,9.74a1.3,1.3,0,0,0,1.81-.18l14.71-18a1.27,1.27,0,0,0-.18-1.8l-11.89-9.74a1.27,1.27,0,0,0-1.8.18l-1.63,2a1.27,1.27,0,0,1-1.8.18l-2.11-1.73-.67,6.8Zm14.5,2.86-11.48,14a1.28,1.28,0,1,1-2-1.63l11.47-14a1.28,1.28,0,0,1,2,1.62Zm-6-4.87a1.28,1.28,0,1,1,2,1.62l-6.49,7.93a1.28,1.28,0,1,1-2-1.62Z"/><polygon class="cls-6" points="445.79 799 447.28 797.66 444.46 797.51 445.79 799"/><path class="cls-6" d="M582.17,774.06a1.13,1.13,0,0,0,1,1.26l6.74.86a1.14,1.14,0,0,0,1.27-1l.15-1.12-9-1.15Z"/><path class="cls-6" d="M348.65,834l-1.41,9.8L369,856.32l1.41-9.8Zm13.73,12.86.73.88a1.15,1.15,0,0,1-1.78,1.46l-.73-.88a1.17,1.17,0,0,1-.11-1.31,1.31,1.31,0,0,1,.27-.31A1.16,1.16,0,0,1,362.38,846.82Zm-2.83-5.14a5.47,5.47,0,0,0,.39,1.79,1.15,1.15,0,0,1-2.12.88,7.56,7.56,0,0,1-.57-2.57,1.19,1.19,0,0,1,.15-.62,1.15,1.15,0,0,1,2.15.52Z"/><path class="cls-6" d="M507.57,854.06l5.68-6.93-4.95-4.06a3.84,3.84,0,0,1-.54-5.41l7.41-9-4.95-4.06a1.29,1.29,0,0,0-1.81.18l-8.22,10a1.32,1.32,0,0,1-.62.42l-6.54,2,2.11,1.73a1.27,1.27,0,0,1,.18,1.8l-1.63,2a1.29,1.29,0,0,0,.18,1.8l11.9,9.74A1.27,1.27,0,0,0,507.57,854.06Z"/><path class="cls-6" d="M361.37,811.93,360,821.74l21.75,12.55,1.41-9.8Zm11.4,11.45a7.81,7.81,0,0,1,1.16,2.35,1.15,1.15,0,1,1-2.21.65,5.42,5.42,0,0,0-.82-1.65,1.16,1.16,0,0,1-.06-1.25,1.22,1.22,0,0,1,.32-.36A1.16,1.16,0,0,1,372.77,823.38ZM369,819.06l.77.86a1.15,1.15,0,1,1-1.72,1.52l-.76-.86a1.15,1.15,0,0,1-.14-1.34,1.23,1.23,0,0,1,.23-.28A1.14,1.14,0,0,1,369,819.06Z"/><path class="cls-6" d="M358.68,836.85a7.85,7.85,0,0,1,1.8-1.88,1.15,1.15,0,1,1,1.38,1.83,6.09,6.09,0,0,0-1.28,1.35l0,0,10.94,6.32,9.15-8.17L373.1,832a8,8,0,0,1-.82,1.12,1.15,1.15,0,0,1-1.86-1.32.59.59,0,0,1,.13-.18,6,6,0,0,0,.55-.77l-12.25-7.08-9.15,8.17,8.88,5.12a.54.54,0,0,1,.05-.11A.35.35,0,0,0,358.68,836.85Zm5.53-2.32a1.18,1.18,0,0,1,1.19-1.11l.48,0a5.49,5.49,0,0,0,1.52-.06,1.15,1.15,0,0,1,.39,2.27,7.89,7.89,0,0,1-2.12.08l-.35,0A1.16,1.16,0,0,1,364.21,834.53Z"/><path class="cls-6" d="M667.11,775.37a4.74,4.74,0,1,0-8-2.2,4.63,4.63,0,0,0,1.24,2.19A4.75,4.75,0,0,0,667.11,775.37Z"/><path class="cls-2" d="M673.81,782.09a14.24,14.24,0,0,0-6.76-23.93l-20.85-4.91a1.17,1.17,0,0,0-1.11.31h0a1.19,1.19,0,0,0-.31,1.12L650,775.48a14.24,14.24,0,0,0,23.86,6.61Zm-18.45-1.71a11.74,11.74,0,0,1-3.1-5.48L647.55,756l19,4.47a11.86,11.86,0,1,1-11.15,19.91Z"/><path class="cls-2" d="M668.78,777.05a7.11,7.11,0,1,0-10-10.08,7.11,7.11,0,0,0,0,10.06A7.12,7.12,0,0,0,668.78,777.05Zm-8.38-1.69a4.63,4.63,0,0,1-1.24-2.19,4.74,4.74,0,1,1,1.24,2.19Z"/><path class="cls-2" d="M557.7,774.35a3.42,3.42,0,0,0,3.81-3l.29-2.25h0l.1-.81a2.59,2.59,0,0,1,2.89-2.23l13.3,1.71a2.51,2.51,0,0,1,1.71,1,2.59,2.59,0,0,1,.52,1.9l-.4,3.07a3.39,3.39,0,0,0,.69,2.51,3.32,3.32,0,0,0,2.26,1.29l6.73.86a3.42,3.42,0,0,0,3.81-2.94l.29-2.22v0l0-.19a12.27,12.27,0,0,0-10.61-13.72l-21.07-2.71a12.25,12.25,0,0,0-13.72,10.61l-.32,2.45a3.4,3.4,0,0,0,2.94,3.81Zm33.46.85a1.14,1.14,0,0,1-1.27,1l-6.74-.86a1.13,1.13,0,0,1-1-1.26l.15-1.13,9,1.15Zm-36.78-14.33a9.9,9.9,0,0,1,7.38-2l21.08,2.7a10,10,0,0,1,8.72,10.27l-9-1.15a4.84,4.84,0,0,0-4.22-5.11l-13.3-1.71h0a4.85,4.85,0,0,0-5.37,3.88l-9-1.15A9.87,9.87,0,0,1,554.38,760.87ZM550.26,770l.15-1.12,9,1.15-.14,1.13a1.14,1.14,0,0,1-1.27,1l-6.75-.87A1.14,1.14,0,0,1,550.26,770Z"/><path class="cls-2" d="M509.55,855.69l5.68-6.94,5,4.06a3.85,3.85,0,0,0,5.41-.54l14.72-18a3.85,3.85,0,0,0-.54-5.41l-11.9-9.74a3.84,3.84,0,0,0-5.4.54l-.82,1-3-2.44a1.28,1.28,0,0,0-1.3-.19,1.24,1.24,0,0,0-.5.37,1.3,1.3,0,0,0-.29.69l-.67,6.81-4.09-3.35a3.85,3.85,0,0,0-5.41.53l-8,9.75L490,835.43a1.35,1.35,0,0,0-.62.42,1.39,1.39,0,0,0-.27.56,1.27,1.27,0,0,0,.45,1.24l3,2.44-.81,1a3.85,3.85,0,0,0,.54,5.41l11.89,9.74A3.85,3.85,0,0,0,509.55,855.69Zm9.37-34,2.11,1.73a1.27,1.27,0,0,0,1.8-.18l1.63-2a1.27,1.27,0,0,1,1.8-.18l11.89,9.74a1.27,1.27,0,0,1,.18,1.8l-14.71,18a1.3,1.3,0,0,1-1.81.18l-11.89-9.74a1.29,1.29,0,0,1-.18-1.81l8.22-10,.07-.09,0,0a.21.21,0,0,0,0-.06l0,0,0-.09s0,0,0,0l0-.07v0s0,0,0-.06v0s0-.07,0-.11h0Zm-25,22.76a1.29,1.29,0,0,1-.18-1.8l1.63-2a1.27,1.27,0,0,0-.18-1.8L493,837.19l6.54-2a1.32,1.32,0,0,0,.62-.42l8.22-10a1.29,1.29,0,0,1,1.81-.18l4.95,4.06-7.41,9a3.84,3.84,0,0,0,.54,5.41l4.95,4.06-5.68,6.93a1.27,1.27,0,0,1-1.8.18Z"/><path class="cls-2" d="M520.49,836.27a1.27,1.27,0,0,0,1.8-.18l6.49-7.93a1.28,1.28,0,1,0-2-1.62l-6.49,7.93A1.27,1.27,0,0,0,520.49,836.27Z"/><path class="cls-2" d="M530.76,829.79l-11.47,14a1.28,1.28,0,1,0,2,1.63l11.48-14a1.28,1.28,0,0,0-2-1.62Z"/><path class="cls-2" d="M445.67,801.15h.26l0,0h.08l0,0,0,0,0,0,0,0,0,0,.06-.05h0l3.49-3.11,6.88.39a.9.9,0,0,0,.94-.84l1-17.82a.9.9,0,0,0-.84-.95l-6.88-.38-3.12-3.49h0l-.06-.07,0,0,0,0,0,0,0,0,0,0,0,0,0,0-.05,0h-.25l-16-.91a2.67,2.67,0,0,0-1.9.65l0,0,0,0a2.69,2.69,0,0,0-.85,1.82l-1.21,21.38a2.71,2.71,0,0,0,.64,1.9l0,0,0,0a2.65,2.65,0,0,0,1.81.85Zm-15.57-2.67,7.14-6.37,6.38,7.14Zm15.69.52-1.33-1.49,2.82.16Zm11-18.67-.9,16-13.12-.74-4.55-5.09.36-6.39,5.1-4.55,6.76.38h0Zm-8.4-2.27-2.83-.16,1.5-1.33Zm-3.46-2L442.77,778h0l-5,4.45-6.37-7.14Zm-14.85.43L436.8,784l-.36,6.39-7.53,6.72Z"/><line class="cls-7" x1="442.77" y1="778.01" x2="442.77" y2="778.01"/><path class="cls-2" d="M443.26,784.24a6.2,6.2,0,0,0-1.18,3.29,6.86,6.86,0,0,0,.49,2.89.89.89,0,1,0,1.66-.65,4.64,4.64,0,0,1,.47-4.49,4.47,4.47,0,1,1,3.37,7.07.89.89,0,0,1-.84-.94.91.91,0,0,1,.9-.85h0a2.68,2.68,0,1,0-2.52-2.83,2.64,2.64,0,0,0,.58,1.82,2.68,2.68,0,0,0,1.74,4.57,6.25,6.25,0,1,0-4.71-9.89Zm4.17,3.6a.89.89,0,0,1,1.78.1.88.88,0,0,1-.84.84,1,1,0,0,0-.24,0A.9.9,0,0,1,447.43,787.84Z"/><path class="cls-2" d="M370.38,859.2a1.16,1.16,0,0,0,.63-.87l1.71-11.84,10.64-9.5,0,0,0,0,.05-.06,0-.05a.43.43,0,0,0,0-.07l0-.05,0-.07,0-.05a.24.24,0,0,0,0-.08s0,0,0-.05a.29.29,0,0,0,0-.09v0l1.76-12.25a1.13,1.13,0,0,0-.56-1.16L361.05,809.1a1.12,1.12,0,0,0-1.08,0,1.09,1.09,0,0,0-.49.46,1,1,0,0,0-.15.41l-1.7,11.83L347,831.26a.46.46,0,0,0-.07.07h0a1.37,1.37,0,0,0-.15.21h0a1.18,1.18,0,0,0-.12.33h0s0,0,0,.08l-1.76,12.25a1.16,1.16,0,0,0,.56,1.16l23.89,13.79A1.18,1.18,0,0,0,370.38,859.2ZM360,821.74l1.42-9.81,21.74,12.56-1.41,9.8ZM349.7,831.92l9.15-8.17,12.25,7.08a6,6,0,0,1-.55.77.59.59,0,0,0-.13.18,1.15,1.15,0,0,0,1.86,1.32,8,8,0,0,0,.82-1.12l7.54,4.35-9.15,8.17-10.94-6.32,0,0a6.09,6.09,0,0,1,1.28-1.35,1.15,1.15,0,1,0-1.38-1.83,7.85,7.85,0,0,0-1.8,1.88.35.35,0,0,1-.05.08.54.54,0,0,0-.05.11Zm-2.46,11.84,1.41-9.8,21.74,12.56-1.41,9.8Z"/><path class="cls-2" d="M367.36,819a1.23,1.23,0,0,0-.23.28,1.15,1.15,0,0,0,.14,1.34l.76.86a1.15,1.15,0,1,0,1.72-1.52l-.77-.86A1.14,1.14,0,0,0,367.36,819Z"/><path class="cls-2" d="M365.67,835.74a7.89,7.89,0,0,0,2.12-.08,1.15,1.15,0,0,0-.39-2.27,5.49,5.49,0,0,1-1.52.06l-.48,0a1.18,1.18,0,0,0-1.19,1.11,1.16,1.16,0,0,0,1.11,1.19Z"/><path class="cls-2" d="M357.4,841.16a1.19,1.19,0,0,0-.15.62,7.56,7.56,0,0,0,.57,2.57,1.15,1.15,0,0,0,2.12-.88,5.47,5.47,0,0,1-.39-1.79,1.15,1.15,0,0,0-2.15-.52Z"/><path class="cls-2" d="M371.16,823.12a1.22,1.22,0,0,0-.32.36,1.16,1.16,0,0,0,.06,1.25,5.42,5.42,0,0,1,.82,1.65,1.15,1.15,0,1,0,2.21-.65,7.81,7.81,0,0,0-1.16-2.35A1.16,1.16,0,0,0,371.16,823.12Z"/><path class="cls-2" d="M360.76,846.66a1.31,1.31,0,0,0-.27.31,1.17,1.17,0,0,0,.11,1.31l.73.88a1.15,1.15,0,0,0,1.78-1.46l-.73-.88A1.16,1.16,0,0,0,360.76,846.66Z"/><path class="cls-6" d="M266.52,809.41A11.87,11.87,0,0,0,281,794.57l-5.61-18.65-14,13.53a11.86,11.86,0,0,0,5.17,20Zm-3.78-13.3a7.24,7.24,0,0,1,1.91-3.26,7.12,7.12,0,1,1-1.91,3.26Z"/><polygon class="cls-6" points="153.92 609.58 153.92 609.58 156.67 610.48 150.57 598.39 147.58 607.49 153.92 609.58"/><polygon class="cls-6" points="156.68 614.47 157.31 612.57 155.41 611.94 156.68 614.47"/><path class="cls-6" d="M156.06,617.2,153,611.15,146.52,609l-5.71,2.88-2.14,6.49,5.92,11.73,14.34-7.24-2.87-5.68ZM151,624.91a6.25,6.25,0,0,1-8.39-2.77,2.68,2.68,0,0,1,3.09-3.79,2.68,2.68,0,0,1,4.88-.23,2.68,2.68,0,1,1-4.78,2.41h0v0a.89.89,0,0,0-1.57.84,4.46,4.46,0,1,0,4.43-6.45,4.62,4.62,0,0,0-4.12,1.83.89.89,0,0,1-1.4-1.11,6.65,6.65,0,0,1,2.26-1.86,6.07,6.07,0,0,1,3.44-.63A6.24,6.24,0,0,1,151,624.91Z"/><polygon class="cls-6" points="145.72 607.42 148.88 597.83 130.41 607.15 140 610.3 145.72 607.42"/><path class="cls-6" d="M216.65,706.41a1.14,1.14,0,0,0,1.49.6l1-.43-3.5-8.37-1,.44a1.13,1.13,0,0,0-.61,1.48Z"/><path class="cls-6" d="M224.7,705.81a4.81,4.81,0,0,1,2.63,2.61h0l5.17,12.37a4.85,4.85,0,0,1-2.32,6.21l3.49,8.34a10,10,0,0,0,4.53-12.68l-8.2-19.6a10,10,0,0,0-12.21-5.69l3.49,8.34A4.86,4.86,0,0,1,224.7,705.81Z"/><polygon class="cls-6" points="129.86 608.84 135.95 620.93 138.95 611.84 129.86 608.84"/><path class="cls-6" d="M147.39,619.82a.91.91,0,0,0,1.15.31.89.89,0,1,0-1.25-.53A.88.88,0,0,1,147.39,619.82Z"/><path class="cls-6" d="M147.89,700.21h0l-.1,0h0l-.06,0h-.42l-.12,0-12.81-2.1a1.29,1.29,0,0,0-1.47,1.06l-2.49,15.17a1.28,1.28,0,0,0,1.06,1.47l22.92,3.76a1.27,1.27,0,0,0,1.47-1.06l2.49-15.17a1.28,1.28,0,0,0-1-1.47l-2.53-.41a1.29,1.29,0,0,1-1.06-1.47l.44-2.7-6.22,2.82Zm4.77,14-17.86-2.93a1.28,1.28,0,0,1,.41-2.53l17.87,2.93a1.28,1.28,0,1,1-.42,2.53Zm1.25-7.59a1.28,1.28,0,0,1-.42,2.53l-10.11-1.66a1.28,1.28,0,1,1,.41-2.52Z"/><polygon class="cls-6" points="137.25 622.69 139.16 623.31 137.88 620.79 137.25 622.69"/><path class="cls-6" d="M227.05,728.33a1.08,1.08,0,0,0-.61.61,1.1,1.1,0,0,0,0,.87l2.63,6.26a1.14,1.14,0,0,0,1.48.61l1-.43-3.5-8.36Z"/><path class="cls-6" d="M58.4,556l-9.19,3.68v25.11l9.19-3.68Zm-4.26,18.32-.41,1.08a1.15,1.15,0,0,1-2.15-.81l.4-1.08a1.15,1.15,0,0,1,1.08-.74,1.12,1.12,0,0,1,.4.07A1.15,1.15,0,0,1,54.14,574.36Zm3-5a5.54,5.54,0,0,0-1.36,1.24,1.15,1.15,0,0,1-1.82-1.4,7.83,7.83,0,0,1,1.94-1.78,1.17,1.17,0,0,1,.62-.18,1.15,1.15,0,0,1,.62,2.12Z"/><path class="cls-6" d="M120.46,703.72l8.85,1.46,1-6.33a3.86,3.86,0,0,1,4.42-3.17l11.54,1.9,1-6.32a1.28,1.28,0,0,0-1.06-1.47l-12.81-2.11a1.24,1.24,0,0,1-.66-.32l-5-4.67-.44,2.69a1.29,1.29,0,0,1-1.47,1.06l-2.53-.41a1.27,1.27,0,0,0-1.47,1.05l-2.49,15.17A1.28,1.28,0,0,0,120.46,703.72Z"/><path class="cls-6" d="M83.84,556l-9.19,3.68v25.11l9.19-3.68Zm-4.21,15.6a7.93,7.93,0,0,1-1.46,2.18,1.14,1.14,0,0,1-1.62,0,1.15,1.15,0,0,1,0-1.63,5.39,5.39,0,0,0,1-1.53,1.15,1.15,0,1,1,2.1.94Zm1.85-5.44-.36,1.09a1.15,1.15,0,1,1-2.18-.73l.36-1.09a1.15,1.15,0,0,1,1.09-.78,1.24,1.24,0,0,1,.37.06A1.14,1.14,0,0,1,81.48,566.2Z"/><path class="cls-6" d="M60.92,566.18a8.08,8.08,0,0,1,2.53.61,1.15,1.15,0,1,1-.9,2.12,5.85,5.85,0,0,0-1.81-.44h0V581.1l11.65,3.84v-8.72a7.87,7.87,0,0,1-1.38-.14,1.15,1.15,0,0,1,.21-2.28l.22,0a5,5,0,0,0,.95.1V559.77L60.7,555.93v10.25h.22Zm4.78,3.63a1.13,1.13,0,0,1,.53-.14,1.15,1.15,0,0,1,1,.61c.07.14.15.28.21.43a6.1,6.1,0,0,0,.81,1.29,1.15,1.15,0,1,1-1.76,1.47,8.33,8.33,0,0,1-1.14-1.8c0-.1-.1-.21-.15-.31A1.15,1.15,0,0,1,65.7,569.81Z"/><path class="cls-6" d="M268.38,802.54a4.74,4.74,0,1,0-2.08-8,4.69,4.69,0,0,0-1.27,2.17A4.75,4.75,0,0,0,268.38,802.54Z"/><path class="cls-2" d="M265.91,811.7a14.23,14.23,0,0,0,17.34-17.81l-6.17-20.52a1.17,1.17,0,0,0-.83-.8h0a1.19,1.19,0,0,0-1.12.3l-15.41,14.88a14.23,14.23,0,0,0,6.2,24Zm-7.75-16.83a11.83,11.83,0,0,1,3.19-5.42l14-13.53L281,794.57a11.86,11.86,0,1,1-22.82.3Z"/><path class="cls-2" d="M267.76,804.83a7.12,7.12,0,0,0,8.72-5,7,7,0,0,0-.05-3.88,7.12,7.12,0,0,0-11.78-3.08,7.24,7.24,0,0,0-1.91,3.26A7.12,7.12,0,0,0,267.76,804.83Zm-2.73-8.1a4.74,4.74,0,0,1,5.82-3.35,4.74,4.74,0,1,1-5.82,3.35Z"/><path class="cls-2" d="M214.56,707.28a3.41,3.41,0,0,0,4.45,1.83l2.09-.88h0l.76-.32a2.58,2.58,0,0,1,3.37,1.39l5.17,12.37A2.59,2.59,0,0,1,229,725l-2.85,1.19a3.41,3.41,0,0,0-1.82,4.46L227,737a3.4,3.4,0,0,0,4.44,1.83l2.08-.86h0l.18-.07a12.28,12.28,0,0,0,6.58-16.05l-8.2-19.6A12.27,12.27,0,0,0,216,695.6l-2.28.95a3.4,3.4,0,0,0-1.82,4.45Zm16,29.4a1.14,1.14,0,0,1-1.48-.61l-2.63-6.26a1.1,1.1,0,0,1,0-.87,1.08,1.08,0,0,1,.61-.61l1-.44,3.5,8.36Zm-6-39a10,10,0,0,1,5.43,5.4l8.2,19.6a10,10,0,0,1-4.53,12.68L230.18,727a4.85,4.85,0,0,0,2.32-6.21l-5.17-12.37h0a4.81,4.81,0,0,0-2.63-2.61,4.86,4.86,0,0,0-3.42-.1l-3.49-8.34A10,10,0,0,1,224.57,697.66Zm-9.93,1,1-.44,3.5,8.37-1,.43a1.14,1.14,0,0,1-1.49-.6L214,700.13A1.13,1.13,0,0,1,214.64,698.65Z"/><path class="cls-2" d="M120,706.25l8.85,1.45-1,6.32a3.85,3.85,0,0,0,3.17,4.42L154,722.2a3.84,3.84,0,0,0,4.41-3.17l2.49-15.17a3.86,3.86,0,0,0-3.17-4.42l-1.26-.2.62-3.8a1.29,1.29,0,0,0-.49-1.22A1.33,1.33,0,0,0,156,694a1.23,1.23,0,0,0-.73.1L149,696.89l.86-5.22a3.84,3.84,0,0,0-3.17-4.41l-12.43-2-6.47-6a1.41,1.41,0,0,0-.67-.33,1.32,1.32,0,0,0-.62.06,1.28,1.28,0,0,0-.85,1L125,683.7l-1.27-.2a3.84,3.84,0,0,0-4.41,3.17l-2.49,15.17A3.84,3.84,0,0,0,120,706.25Zm34.08-8.86-.44,2.7a1.29,1.29,0,0,0,1.06,1.47l2.53.41a1.28,1.28,0,0,1,1,1.47l-2.49,15.17a1.27,1.27,0,0,1-1.47,1.06l-22.92-3.76a1.28,1.28,0,0,1-1.06-1.47l2.49-15.17a1.29,1.29,0,0,1,1.47-1.06l12.81,2.1.12,0h.42l.06,0h0l.1,0h0Zm-32.23-10.31a1.27,1.27,0,0,1,1.47-1.05l2.53.41a1.29,1.29,0,0,0,1.47-1.06l.44-2.69,5,4.67a1.24,1.24,0,0,0,.66.32l12.81,2.11a1.28,1.28,0,0,1,1.06,1.47l-1,6.32-11.54-1.9a3.86,3.86,0,0,0-4.42,3.17l-1,6.33-8.85-1.46a1.28,1.28,0,0,1-1.06-1.47Z"/><path class="cls-2" d="M142.32,706a1.28,1.28,0,0,0,1.06,1.47l10.11,1.66a1.28,1.28,0,0,0,.42-2.53L143.79,705A1.28,1.28,0,0,0,142.32,706Z"/><path class="cls-2" d="M153.08,711.67l-17.87-2.93a1.28,1.28,0,0,0-.41,2.53l17.86,2.93a1.28,1.28,0,1,0,.42-2.53Z"/><path class="cls-2" d="M135.33,623.66h0l0,.07,0,0,0,0,0,0,0,0,0,0,0,0,0,0,0,0,0,0,0,0,0,0a.05.05,0,0,0,0,0l.06,0h0l4.44,1.47,3.1,6.15a.9.9,0,0,0,1.2.39l15.94-8a.87.87,0,0,0,.39-1.19l-3.1-6.16,1.46-4.44h0l0-.08v0a.09.09,0,0,0,0,0v-.17s0,0,0-.05v0a.06.06,0,0,1,0,0,.09.09,0,0,1,0,0l0,0s0,0,0,0l0-.07h0L152,597.26a2.67,2.67,0,0,0-1.51-1.32l0,0h0a2.69,2.69,0,0,0-2,.16l-19.12,9.65a2.67,2.67,0,0,0-1.32,1.51l0,0s0,0,0,.05a2.64,2.64,0,0,0,.17,2Zm-5.47-14.82,9.09,3-3,9.09Zm7.39,13.85.63-1.9,1.27,2.52Zm21.68.19-14.34,7.24-5.92-11.73,2.14-6.49,5.71-2.88,6.49,2.13,3.05,6.05h0Zm-2.25-8.41-1.27-2.53,1.9.63Zm0-4-2.75-.9h0l-6.34-2.09,3-9.09Zm-7.79-12.65-3.16,9.59L140,610.31l-9.59-3.16Z"/><line class="cls-7" x1="153.92" y1="609.57" x2="153.92" y2="609.58"/><path class="cls-2" d="M148.77,613.12a6.07,6.07,0,0,0-3.44.63,6.65,6.65,0,0,0-2.26,1.86.89.89,0,0,0,1.4,1.11,4.62,4.62,0,0,1,4.12-1.83,4.46,4.46,0,1,1-4.43,6.45.89.89,0,0,1,1.57-.84v0h0a2.68,2.68,0,1,0-.1-2.18,2.68,2.68,0,0,0-3.09,3.79,6.25,6.25,0,1,0,6.21-9Zm-1,5.41a.89.89,0,0,1,.8,1.6.91.91,0,0,1-1.15-.31.88.88,0,0,0-.1-.22A.89.89,0,0,1,147.74,618.53Z"/><path class="cls-2" d="M47.42,587.48a1.16,1.16,0,0,0,1.07.11l11.1-4.44,13.55,4.47h0l.06,0h.49l.06,0,.08,0,0,0,11.5-4.6a1.14,1.14,0,0,0,.72-1.06V554.35a1.16,1.16,0,0,0-.51-1,1.12,1.12,0,0,0-.64-.19,1.06,1.06,0,0,0-.43.08l-11.1,4.44-13.54-4.46-.1,0h0a1.09,1.09,0,0,0-.26,0h0a1.34,1.34,0,0,0-.35,0h0l-.08,0-11.49,4.6a1.14,1.14,0,0,0-.72,1.06v27.58A1.16,1.16,0,0,0,47.42,587.48Zm27.23-27.76L83.84,556v25.11l-9.19,3.68Zm-14-3.79,11.65,3.84v14.15a5,5,0,0,1-.95-.1l-.22,0a1.15,1.15,0,0,0-.21,2.28,7.87,7.87,0,0,0,1.38.14v8.72L60.7,581.1V568.46h0a5.85,5.85,0,0,1,1.81.44,1.15,1.15,0,1,0,.9-2.12,8.08,8.08,0,0,0-2.53-.61H60.7Zm-11.49,3.79L58.4,556v25.11l-9.19,3.68Z"/><path class="cls-2" d="M80.76,564.75a1.24,1.24,0,0,0-.37-.06,1.15,1.15,0,0,0-1.09.78l-.36,1.09a1.15,1.15,0,1,0,2.18.73l.36-1.09A1.14,1.14,0,0,0,80.76,564.75Z"/><path class="cls-2" d="M65.37,571.67a8.33,8.33,0,0,0,1.14,1.8A1.15,1.15,0,1,0,68.27,572a6.1,6.1,0,0,1-.81-1.29c-.06-.15-.14-.29-.21-.43a1.15,1.15,0,0,0-1-.61,1.16,1.16,0,0,0-1,1.69C65.27,571.46,65.33,571.57,65.37,571.67Z"/><path class="cls-2" d="M56.55,567.22a1.17,1.17,0,0,0-.62.18A7.83,7.83,0,0,0,54,569.18a1.15,1.15,0,0,0,1.82,1.4,5.54,5.54,0,0,1,1.36-1.24,1.15,1.15,0,0,0-.62-2.12Z"/><path class="cls-2" d="M79.05,570.12a1.15,1.15,0,0,0-1.52.58,5.39,5.39,0,0,1-1,1.53,1.15,1.15,0,0,0,0,1.63,1.14,1.14,0,0,0,1.62,0,7.93,7.93,0,0,0,1.46-2.18A1.15,1.15,0,0,0,79.05,570.12Z"/><path class="cls-2" d="M53.46,572.88a1.12,1.12,0,0,0-.4-.07,1.15,1.15,0,0,0-1.08.74l-.4,1.08a1.15,1.15,0,0,0,2.15.81l.41-1.08A1.15,1.15,0,0,0,53.46,572.88Z"/><path class="cls-6" d="M39,472.89A11.85,11.85,0,0,0,59.1,478L72.46,463.8l-18.73-5.37A11.87,11.87,0,0,0,39,472.89ZM48.65,463a7.12,7.12,0,0,1,7,11.77,7,7,0,0,1-3.33,2A7.12,7.12,0,0,1,48.65,463Z"/><polygon class="cls-6" points="155.79 275.45 155.79 275.45 156.38 278.29 163.8 266.96 154.43 268.91 155.79 275.45"/><polygon class="cls-6" points="152.93 280.3 154.89 279.89 154.48 277.93 152.93 280.3"/><path class="cls-6" d="M150.26,281.12l3.7-5.66-1.39-6.69-5.35-3.51-6.69,1.39-7.2,11,13.44,8.8,3.48-5.32Zm-9.23-.57a6.26,6.26,0,0,1-1.81-8.65,2.69,2.69,0,0,1,3.71-.77,2.64,2.64,0,0,1,1.12,1.55,2.67,2.67,0,1,1-1.84,1.18h0v0a.89.89,0,0,0-1.51-.94,4.46,4.46,0,1,0,7.8.61,4.64,4.64,0,0,0-3.65-2.65.89.89,0,1,1,.27-1.76,6.75,6.75,0,0,1,2.74,1A6.25,6.25,0,0,1,141,280.55Z"/><polygon class="cls-6" points="153.55 267.27 163.43 265.21 146.14 253.88 148.2 263.77 153.55 267.27"/><path class="cls-6" d="M103.3,378.2a1.13,1.13,0,0,0,.21,1.59l.9.68,5.5-7.21-.9-.69a1.14,1.14,0,0,0-1.59.21Z"/><path class="cls-6" d="M107.84,384.87a4.84,4.84,0,0,1-1,3.58h0l-8.13,10.66a4.84,4.84,0,0,1-6.54,1.1l-5.48,7.19A10,10,0,0,0,100,405l12.88-16.9a10,10,0,0,0-1.18-13.41l-5.48,7.19A4.82,4.82,0,0,1,107.84,384.87Z"/><polygon class="cls-6" points="144.39 254.25 136.97 265.57 146.34 263.62 144.39 254.25"/><path class="cls-6" d="M143.65,274.92a.9.9,0,0,0,1.55.89.89.89,0,0,0-1.41-1.09A.9.9,0,0,1,143.65,274.92Z"/><path class="cls-6" d="M74.28,315.55h0l-.08-.06,0,0,0,0,0,0,0-.06,0,0-.06-.09,0,0a.25.25,0,0,0,0-.07v0a.54.54,0,0,1-.05-.11l-4.58-12.14a1.29,1.29,0,0,0-1.66-.75L53.2,307.5a1.28,1.28,0,0,0-.74,1.65l8.2,21.73a1.28,1.28,0,0,0,1.65.75l14.38-5.43a1.28,1.28,0,0,0,.75-1.65l-.9-2.4a1.28,1.28,0,0,1,.74-1.65l2.56-1-5.56-4Zm-9.73,11.13-6.39-16.94a1.28,1.28,0,0,1,2.39-.91L67,325.77a1.28,1.28,0,0,1-2.4.91ZM71.74,324a1.28,1.28,0,1,1-2.39.91l-3.62-9.59a1.28,1.28,0,1,1,2.39-.91Z"/><polygon class="cls-6" points="136.1 267.58 136.51 269.54 138.06 267.17 136.1 267.58"/><path class="cls-6" d="M89.51,398.16a1.14,1.14,0,0,0-.84-.22,1.11,1.11,0,0,0-.75.43l-4.11,5.41a1.13,1.13,0,0,0,.22,1.59l.89.69,5.49-7.21Z"/><path class="cls-6" d="M154.39,166l-7.78-6.13L124.86,172.4l7.79,6.12Zm-18,5.46-1.13.19a1.15,1.15,0,0,1-.38-2.27l1.14-.19a1.15,1.15,0,0,1,1.18.56,1.3,1.3,0,0,1,.14.39A1.15,1.15,0,0,1,136.39,171.43Zm5.86.12a5.43,5.43,0,0,0-1.75-.56,1.15,1.15,0,0,1,.31-2.28,7.55,7.55,0,0,1,2.5.8,1.17,1.17,0,0,1,.47.44,1.15,1.15,0,0,1-1.53,1.6Z"/><path class="cls-6" d="M57.52,293.55l3.17,8.39,6-2.27a3.86,3.86,0,0,1,4.95,2.24l4.14,10.95,6-2.26a1.29,1.29,0,0,0,.74-1.66L77.92,296.8a1.25,1.25,0,0,1,0-.74l1.54-6.67-2.56,1a1.28,1.28,0,0,1-1.65-.74l-.9-2.4a1.28,1.28,0,0,0-1.65-.74L58.27,291.9A1.28,1.28,0,0,0,57.52,293.55Z"/><path class="cls-6" d="M167.11,188l-7.79-6.13-21.74,12.56,7.78,6.12Zm-15.62,4.14a7.62,7.62,0,0,1-2.61-.16,1.15,1.15,0,1,1,.54-2.24,5.64,5.64,0,0,0,1.84.12,1.15,1.15,0,1,1,.23,2.28Zm5.64-1.11-1.13.23a1.15,1.15,0,0,1-.46-2.25l1.13-.23a1.17,1.17,0,0,1,1.23.55,1.33,1.33,0,0,1,.13.35A1.15,1.15,0,0,1,157.13,191Z"/><path class="cls-6" d="M146.87,173.21a8,8,0,0,1,.73,2.5,1.15,1.15,0,1,1-2.28.28,5.82,5.82,0,0,0-.52-1.79l0,0-10.94,6.31,2.5,12,7.54-4.36a8.34,8.34,0,0,1-.56-1.26,1.15,1.15,0,0,1,2.08-1l.09.2a4.83,4.83,0,0,0,.39.87l12.25-7.07-2.5-12L146.76,173l.07.1S146.86,173.18,146.87,173.21Zm-.76,5.95a1.24,1.24,0,0,1,.39.4,1.16,1.16,0,0,1,0,1.19c-.08.13-.17.26-.26.39a5.83,5.83,0,0,0-.71,1.35,1.15,1.15,0,1,1-2.16-.79,7.88,7.88,0,0,1,1-1.88l.19-.29A1.15,1.15,0,0,1,146.11,179.16Z"/><path class="cls-6" d="M45.9,471.06a4.74,4.74,0,1,0,3.36-5.81A4.75,4.75,0,0,0,45.9,471.06Z"/><path class="cls-2" d="M36.73,473.5a14.23,14.23,0,0,0,24.1,6.11L75.52,464a1.2,1.2,0,0,0,.28-1.12h0a1.19,1.19,0,0,0-.82-.82l-20.59-5.91A14.24,14.24,0,0,0,36.73,473.5Zm10.7-15.12a11.82,11.82,0,0,1,6.3.05l18.73,5.37L59.1,478a11.86,11.86,0,1,1-11.67-19.6Z"/><path class="cls-2" d="M43.61,471.67a7.12,7.12,0,0,0,8.71,5A7.12,7.12,0,0,0,52.43,463a7.12,7.12,0,0,0-8.82,8.68Zm5.65-6.42a4.74,4.74,0,0,1,5.81,3.37,4.74,4.74,0,1,1-5.81-3.37Z"/><path class="cls-2" d="M101.49,376.82a3.4,3.4,0,0,0,.65,4.77l1.8,1.37h0l.66.49a2.58,2.58,0,0,1,.48,3.62L97,397.74a2.52,2.52,0,0,1-1.7,1,2.57,2.57,0,0,1-1.91-.5l-2.46-1.88a3.37,3.37,0,0,0-2.51-.66A3.4,3.4,0,0,0,86.11,397L82,402.41a3.39,3.39,0,0,0,.64,4.76l1.78,1.37h0l.14.12a12.29,12.29,0,0,0,17.2-2.33l12.87-16.89a12.26,12.26,0,0,0-2.32-17.19l-2-1.5a3.41,3.41,0,0,0-4.77.64ZM84,405.37a1.13,1.13,0,0,1-.22-1.59l4.11-5.41a1.11,1.11,0,0,1,.75-.43,1.14,1.14,0,0,1,.84.22l.9.69-5.49,7.21Zm30.8-24.69a10,10,0,0,1-2,7.4L100,405a10,10,0,0,1-13.25,2.42l5.48-7.19a4.84,4.84,0,0,0,6.54-1.1l8.13-10.66h0a4.83,4.83,0,0,0-.68-6.59l5.48-7.19A10,10,0,0,1,114.83,380.68ZM109,372.57l.9.69-5.5,7.21-.9-.68a1.13,1.13,0,0,1-.21-1.59l4.12-5.42A1.14,1.14,0,0,1,109,372.57Z"/><path class="cls-2" d="M55.12,294.45l3.17,8.39-6,2.26a3.85,3.85,0,0,0-2.24,5l8.21,21.73A3.84,3.84,0,0,0,63.22,334L77.6,328.6a3.85,3.85,0,0,0,2.24-5l-.45-1.19L83,321.09a1.3,1.3,0,0,0,.82-1,1.26,1.26,0,0,0-.53-1.21l-5.56-4,5-1.87A3.84,3.84,0,0,0,84.9,308l-4.45-11.78,2-8.63a1.25,1.25,0,0,0,0-.74,1.26,1.26,0,0,0-.35-.51,1.28,1.28,0,0,0-1.3-.23l-3.59,1.36-.45-1.2a3.85,3.85,0,0,0-5-2.24L57.36,289.5A3.85,3.85,0,0,0,55.12,294.45Zm24.72,25.09-2.56,1a1.28,1.28,0,0,0-.74,1.65l.9,2.4a1.28,1.28,0,0,1-.75,1.65l-14.38,5.43a1.28,1.28,0,0,1-1.65-.75l-8.2-21.73a1.28,1.28,0,0,1,.74-1.65l14.38-5.43a1.29,1.29,0,0,1,1.66.75L73.82,315a.54.54,0,0,0,.05.11v0a.25.25,0,0,1,0,.07l0,0,.06.09,0,0,0,.06,0,0,0,0,0,0,.08.06h0Zm-7.19-33.07a1.28,1.28,0,0,1,1.65.74l.9,2.4a1.28,1.28,0,0,0,1.65.74l2.56-1-1.54,6.67a1.25,1.25,0,0,0,0,.74l4.58,12.14a1.29,1.29,0,0,1-.74,1.66l-6,2.26-4.14-10.95a3.86,3.86,0,0,0-4.95-2.24l-6,2.27-3.17-8.39a1.28,1.28,0,0,1,.75-1.65Z"/><path class="cls-2" d="M66.47,313.63a1.28,1.28,0,0,0-.74,1.65l3.62,9.59a1.28,1.28,0,1,0,2.39-.91l-3.62-9.59A1.28,1.28,0,0,0,66.47,313.63Z"/><path class="cls-2" d="M67,325.77l-6.4-16.94a1.28,1.28,0,0,0-2.39.91l6.39,16.94a1.28,1.28,0,0,0,2.4-.91Z"/><path class="cls-2" d="M134.3,266.39h0l-.05.07v0l0,.05a.06.06,0,0,1,0,0s0,0,0,0a.08.08,0,0,0,0,0,.09.09,0,0,0,0,.05s0,0,0,0a.43.43,0,0,0,0,.05v.12a.09.09,0,0,0,0,.05.17.17,0,0,0,0,.07v0h0l1,4.58-3.77,5.76a.88.88,0,0,0,.26,1.23l14.92,9.79a.9.9,0,0,0,1.24-.26l3.78-5.76,4.57-1h0l.08,0h0l0,0,0,0,0,0,0,0,0,0,0,0,0,0,0,0,0,0,0,0,0,0,0-.06h0l8.8-13.44a2.63,2.63,0,0,0,.39-2,.06.06,0,0,0,0,0,.09.09,0,0,0,0-.05,2.67,2.67,0,0,0-1.14-1.65l-17.91-11.73a2.64,2.64,0,0,0-2-.39h-.05l0,0A2.66,2.66,0,0,0,143.1,253Zm10.09-12.14,2,9.37L137,265.57Zm-8.29,13.33,2-.41-1.55,2.37Zm10.67,18.86-13.44-8.8,7.2-11,6.69-1.39,5.35,3.51,1.39,6.69-3.7,5.66h0Zm6.16-6.15,1.55-2.36.41,2Zm3.45-2-.59-2.84h0l-1.36-6.54,9.37-2Zm7.05-13.08-9.88,2.06-5.35-3.5-2.06-9.89Z"/><line class="cls-7" x1="155.79" y1="275.45" x2="155.79" y2="275.45"/><path class="cls-2" d="M150.15,272.76a6.26,6.26,0,0,0-2.27-2.66,6.75,6.75,0,0,0-2.74-1,.89.89,0,1,0-.27,1.76,4.64,4.64,0,0,1,3.65,2.65,4.46,4.46,0,1,1-7.8-.61.89.89,0,0,1,1.51.94v0h0a2.69,2.69,0,1,0,1.84-1.18,2.64,2.64,0,0,0-1.12-1.55,2.69,2.69,0,0,0-3.71.77,6.25,6.25,0,1,0,10.93.86Zm-5.21,1.82a.89.89,0,0,1,.26,1.23.9.9,0,0,1-1.55-.89.9.9,0,0,0,.14-.2A.89.89,0,0,1,144.94,274.58Z"/><path class="cls-2" d="M121.67,172.17a1.15,1.15,0,0,0,.44,1l9.4,7.4,2.9,14s0,0,0,.05,0,.05,0,.07l0,.07s0,0,0,.06l0,.06,0,.06,0,.06,0,.05.05.06,0,0,.06.06,0,0,9.72,7.66a1.17,1.17,0,0,0,1.29.09l23.89-13.79a1.17,1.17,0,0,0,.57-.92,1.2,1.2,0,0,0-.15-.65,1.15,1.15,0,0,0-.29-.33l-9.4-7.4-2.9-14,0-.09h0a1,1,0,0,0-.1-.24h0a.93.93,0,0,0-.22-.27h0l-.06,0-9.72-7.65a1.17,1.17,0,0,0-1.29-.1l-23.89,13.79A1.18,1.18,0,0,0,121.67,172.17Zm37.65,9.7,7.79,6.13-21.75,12.55-7.78-6.12Zm-3.69-14,2.5,12L145.88,187a4.83,4.83,0,0,1-.39-.87l-.09-.2a1.15,1.15,0,0,0-2.08,1,8.34,8.34,0,0,0,.56,1.26l-7.54,4.36-2.5-12,10.94-6.31,0,0a5.82,5.82,0,0,1,.52,1.79,1.15,1.15,0,1,0,2.28-.28,8,8,0,0,0-.73-2.5s0-.05,0-.08l-.07-.1Zm-9-8.06,7.78,6.13-21.74,12.55-7.79-6.12Z"/><path class="cls-2" d="M158,189.68a1.33,1.33,0,0,0-.13-.35,1.17,1.17,0,0,0-1.23-.55l-1.13.23a1.15,1.15,0,0,0,.46,2.25l1.13-.23A1.15,1.15,0,0,0,158,189.68Z"/><path class="cls-2" d="M144.34,179.82a7.88,7.88,0,0,0-1,1.88,1.15,1.15,0,1,0,2.16.79,5.83,5.83,0,0,1,.71-1.35c.09-.13.18-.26.26-.39a1.16,1.16,0,0,0,0-1.19,1.24,1.24,0,0,0-.39-.4,1.15,1.15,0,0,0-1.58.37Z"/><path class="cls-2" d="M143.78,170a1.17,1.17,0,0,0-.47-.44,7.55,7.55,0,0,0-2.5-.8,1.15,1.15,0,0,0-.31,2.28,5.43,5.43,0,0,1,1.75.56,1.15,1.15,0,0,0,1.53-1.6Z"/><path class="cls-2" d="M152.52,190.88a1.16,1.16,0,0,0-1.26-1,5.64,5.64,0,0,1-1.84-.12,1.15,1.15,0,1,0-.54,2.24,7.62,7.62,0,0,0,2.61.16A1.15,1.15,0,0,0,152.52,190.88Z"/><path class="cls-2" d="M137.34,170.11a1.3,1.3,0,0,0-.14-.39,1.15,1.15,0,0,0-1.18-.56l-1.14.19a1.15,1.15,0,0,0,.38,2.27l1.13-.19A1.15,1.15,0,0,0,137.34,170.11Z"/><path class="cls-6" d="M216.29,107.85a11.86,11.86,0,0,0,5.63,19.94l19,4.47-4.71-18.9a11.87,11.87,0,0,0-19.88-5.51Zm13.41,3.38a7.11,7.11,0,1,1-10.06,0A7.07,7.07,0,0,1,229.7,111.23Z"/><polygon class="cls-6" points="445.66 110.25 445.65 110.25 443.5 112.18 457.02 112.94 450.64 105.8 445.66 110.25"/><polygon class="cls-6" points="440.03 110.2 441.37 111.69 442.86 110.36 440.03 110.2"/><path class="cls-6" d="M438,108.29l6.76.39,5.1-4.56.36-6.39-4.55-5.09-13.12-.74-.9,16,6.35.35ZM433.86,100a6.26,6.26,0,0,1,6.59-5.89A2.68,2.68,0,0,1,443,97a2.63,2.63,0,0,1-.78,1.74,2.68,2.68,0,1,1-1.94-1h0a.9.9,0,0,0,.06-1.79,4.46,4.46,0,1,0,3.37,7.07,4.64,4.64,0,0,0,.47-4.49.9.9,0,0,1,.51-1.16.89.89,0,0,1,1.15.51,6.86,6.86,0,0,1,.49,2.89,6.26,6.26,0,0,1-6.59,5.88A6.26,6.26,0,0,1,433.86,100Z"/><polygon class="cls-6" points="451.62 104.22 458.35 111.75 459.51 91.11 451.98 97.83 451.62 104.22"/><path class="cls-6" d="M330.43,116.16a1.15,1.15,0,0,0-1.27,1l-.14,1.12,9,1.15.14-1.12a1.14,1.14,0,0,0-1-1.27Z"/><path class="cls-6" d="M326.93,123.43a4.81,4.81,0,0,1-3.58,1h0l-13.3-1.71a4.84,4.84,0,0,1-4.22-5.11l-9-1.15a10,10,0,0,0,8.73,10.27l21.07,2.7a10,10,0,0,0,11-7.73l-9-1.15A4.8,4.8,0,0,1,326.93,123.43Z"/><polygon class="cls-6" points="458.32 89.78 444.81 89.02 451.18 96.16 458.32 89.78"/><path class="cls-6" d="M440.05,99.48a.88.88,0,0,0-.84.84.89.89,0,1,0,1.08-.82A1,1,0,0,1,440.05,99.48Z"/><path class="cls-6" d="M370.17,59.71h0s0-.07,0-.11v0s0,0,0-.06l0,0a.25.25,0,0,1,0-.07l0,0a.3.3,0,0,1,0-.1l0,0,0-.06,0,0,.07-.09,8.22-10a1.27,1.27,0,0,0-.18-1.8l-11.89-9.74a1.28,1.28,0,0,0-1.8.17l-14.72,18a1.27,1.27,0,0,0,.18,1.8l11.89,9.74A1.29,1.29,0,0,0,364,67l1.62-2a1.27,1.27,0,0,1,1.8-.18l2.11,1.73.67-6.8Zm-14.49-2.86,11.47-14a1.28,1.28,0,1,1,2,1.63l-11.47,14a1.28,1.28,0,0,1-2-1.62Zm5.94,4.87a1.28,1.28,0,0,1-2-1.62l6.5-7.93a1.28,1.28,0,1,1,2,1.62Z"/><polygon class="cls-6" points="442.63 89.26 441.14 90.59 443.97 90.75 442.63 89.26"/><path class="cls-6" d="M306.25,114.21a1.14,1.14,0,0,0-1-1.27l-6.74-.86a1.22,1.22,0,0,0-.84.23,1.15,1.15,0,0,0-.43.76l-.15,1.11,9,1.15Z"/><path class="cls-6" d="M539.78,54.3l1.41-9.8L519.44,31.94,518,41.74ZM526.05,41.44l-.73-.88a1.15,1.15,0,1,1,1.77-1.46l.73.88a1.17,1.17,0,0,1,.11,1.31,1.16,1.16,0,0,1-1.88.15Zm2.82,5.14a5.22,5.22,0,0,0-.39-1.79,1.15,1.15,0,0,1,2.13-.88,7.79,7.79,0,0,1,.56,2.57,1.19,1.19,0,0,1-.15.62,1.15,1.15,0,0,1-2.15-.52Z"/><path class="cls-6" d="M380.85,34.2l-5.68,6.93,5,4.06a3.85,3.85,0,0,1,.54,5.41l-7.42,9,5,4.06a1.27,1.27,0,0,0,1.8-.18l8.23-10a1.21,1.21,0,0,1,.61-.41l6.55-2-2.11-1.73a1.29,1.29,0,0,1-.18-1.81l1.62-2a1.27,1.27,0,0,0-.18-1.8L382.66,34A1.29,1.29,0,0,0,380.85,34.2Z"/><path class="cls-6" d="M527.06,76.33l1.41-9.8L506.73,54l-1.42,9.8Zm-11.4-11.45a7.37,7.37,0,0,1-1.16-2.35,1.15,1.15,0,1,1,2.2-.65,5.31,5.31,0,0,0,.82,1.65,1.16,1.16,0,0,1,.06,1.25,1.1,1.1,0,0,1-.32.36A1.15,1.15,0,0,1,515.66,64.88Zm3.78,4.33-.76-.86a1.15,1.15,0,1,1,1.72-1.53l.76.86a1.16,1.16,0,0,1,.13,1.34,1,1,0,0,1-.23.28A1.15,1.15,0,0,1,519.44,69.21Z"/><path class="cls-6" d="M529.74,51.41A8,8,0,0,1,528,53.29a1.16,1.16,0,0,1-1.61-.22,1.14,1.14,0,0,1,.22-1.61,5.66,5.66,0,0,0,1.28-1.35l0,0-10.94-6.32-9.15,8.17,7.55,4.35a8.85,8.85,0,0,1,.81-1.12A1.15,1.15,0,0,1,518,56.49a.66.66,0,0,1-.12.17,5.21,5.21,0,0,0-.56.77l12.25,7.08,9.15-8.17-8.87-5.12-.06.11Zm-5.53,2.32a1.21,1.21,0,0,1-.15.54,1.16,1.16,0,0,1-1,.57l-.47,0a5.57,5.57,0,0,0-1.53.06,1.15,1.15,0,1,1-.39-2.27,8.38,8.38,0,0,1,2.13-.08l.34,0A1.16,1.16,0,0,1,524.21,53.73Z"/><path class="cls-6" d="M221.31,112.89a4.76,4.76,0,0,0,0,6.71,4.82,4.82,0,0,0,2.26,1.27,4.76,4.76,0,0,0,5.71-5.78,4.76,4.76,0,0,0-8-2.2Z"/><path class="cls-2" d="M214.62,106.17a14.23,14.23,0,0,0,6.75,23.93L242.23,135a1.18,1.18,0,0,0,1.11-.31h0a1.18,1.18,0,0,0,.31-1.12l-5.18-20.79a14.24,14.24,0,0,0-23.85-6.61Zm18.44,1.71a11.81,11.81,0,0,1,3.11,5.48l4.71,18.9-19-4.47a11.86,11.86,0,1,1,11.14-19.91Z"/><path class="cls-2" d="M219.64,111.21a7.13,7.13,0,1,0,10.06,0A7.12,7.12,0,0,0,219.64,111.21ZM228,112.9a4.78,4.78,0,0,1,1.25,2.19,4.76,4.76,0,0,1-5.71,5.78,4.82,4.82,0,0,1-2.26-1.27,4.74,4.74,0,0,1,6.72-6.7Z"/><path class="cls-2" d="M330.72,113.92a3.41,3.41,0,0,0-3.81,2.94l-.28,2.25h0l-.11.82a2.58,2.58,0,0,1-2.88,2.22l-13.3-1.7a2.58,2.58,0,0,1-1.72-1,2.54,2.54,0,0,1-.51-1.9l.39-3.07a3.39,3.39,0,0,0-2.94-3.8l-6.74-.85a3.41,3.41,0,0,0-3.81,2.93l-.29,2.22v0l0,.19A12.28,12.28,0,0,0,305.3,129l21.07,2.7A12.27,12.27,0,0,0,340.1,121l.31-2.45a3.41,3.41,0,0,0-2.94-3.81Zm-33.46-.85a1.15,1.15,0,0,1,.43-.76,1.22,1.22,0,0,1,.84-.23l6.74.86a1.14,1.14,0,0,1,1,1.27l-.14,1.12-9-1.15ZM334,127.39a9.89,9.89,0,0,1-7.38,2l-21.07-2.7a10,10,0,0,1-8.73-10.27l9,1.15a4.84,4.84,0,0,0,4.22,5.11l13.3,1.71h0a4.84,4.84,0,0,0,5.37-3.88l9,1.15A9.93,9.93,0,0,1,334,127.39Zm4.12-9.09-.14,1.12-9-1.15.14-1.12a1.15,1.15,0,0,1,1.27-1l6.75.87A1.14,1.14,0,0,1,338.16,118.3Z"/><path class="cls-2" d="M378.87,32.57l-5.68,6.94-5-4.06a3.84,3.84,0,0,0-5.4.54L348.11,54a3.84,3.84,0,0,0,.54,5.41l11.89,9.74a3.85,3.85,0,0,0,5.41-.54l.81-1,3,2.44a1.28,1.28,0,0,0,1.3.19,1.34,1.34,0,0,0,.51-.37,1.37,1.37,0,0,0,.28-.69l.67-6.81,4.09,3.35a3.84,3.84,0,0,0,5.41-.53l8-9.75,8.47-2.58a1.32,1.32,0,0,0,.61-.42,1.26,1.26,0,0,0-.18-1.8l-3-2.44.81-1a3.84,3.84,0,0,0-.54-5.4L384.28,32A3.84,3.84,0,0,0,378.87,32.57ZM369.5,66.52l-2.11-1.73a1.27,1.27,0,0,0-1.8.18L364,67a1.29,1.29,0,0,1-1.81.18l-11.89-9.74a1.27,1.27,0,0,1-.18-1.8l14.72-18a1.28,1.28,0,0,1,1.8-.17l11.89,9.74a1.27,1.27,0,0,1,.18,1.8l-8.22,10-.07.09,0,0,0,.06,0,0a.3.3,0,0,0,0,.1l0,0a.25.25,0,0,0,0,.07l0,0s0,0,0,.06v0s0,.07,0,.11h0Zm25.05-22.76a1.27,1.27,0,0,1,.18,1.8l-1.62,2a1.29,1.29,0,0,0,.18,1.81l2.11,1.73-6.55,2a1.21,1.21,0,0,0-.61.41l-8.23,10a1.27,1.27,0,0,1-1.8.18l-5-4.06,7.42-9a3.85,3.85,0,0,0-.54-5.41l-5-4.06,5.68-6.93a1.29,1.29,0,0,1,1.81-.18Z"/><path class="cls-2" d="M367.94,52a1.27,1.27,0,0,0-1.8.18l-6.5,7.93a1.28,1.28,0,0,0,2,1.62l6.5-7.93A1.27,1.27,0,0,0,367.94,52Z"/><path class="cls-2" d="M357.66,58.47l11.47-14a1.28,1.28,0,1,0-2-1.63l-11.47,14a1.28,1.28,0,0,0,2,1.62Z"/><path class="cls-2" d="M442.76,87.11h-.39l0,0,0,0-.05,0,0,0a.05.05,0,0,0,0,0l-.06,0h0l-3.49,3.11-6.88-.39a.9.9,0,0,0-.94.85l-1,17.82a.89.89,0,0,0,.84.94l6.87.39,3.12,3.48h0l.06.07,0,0,0,0,0,0,0,0,0,0,0,0,0,0,0,0h.26l16,.91a2.66,2.66,0,0,0,1.9-.65l0,0,0,0a2.68,2.68,0,0,0,.86-1.82l1.21-21.38a2.67,2.67,0,0,0-.65-1.9l0,0,0,0a2.69,2.69,0,0,0-1.82-.85Zm15.56,2.67-7.14,6.38L444.81,89Zm-15.69-.52,1.34,1.5-2.83-.16Zm-11,18.68.9-16,13.12.74,4.55,5.09-.36,6.39-5.1,4.56-6.76-.39h0Zm8.4,2.26,2.83.16-1.49,1.33Zm3.47,2,2.16-1.93h0l5-4.45,6.38,7.14Zm14.85-.43-6.73-7.53.36-6.39,7.53-6.72Z"/><line class="cls-7" x1="445.66" y1="110.25" x2="445.66" y2="110.25"/><path class="cls-2" d="M445.17,104a6.19,6.19,0,0,0,1.17-3.29,6.86,6.86,0,0,0-.49-2.89.89.89,0,0,0-1.15-.51.9.9,0,0,0-.51,1.16,4.64,4.64,0,0,1-.47,4.49,4.47,4.47,0,1,1-3.37-7.07.9.9,0,0,1-.06,1.79h0a2.67,2.67,0,1,0,1.94,1A2.63,2.63,0,0,0,443,97a2.68,2.68,0,0,0-2.52-2.83,6.25,6.25,0,1,0,4.72,9.89Zm-4.18-3.6a.89.89,0,0,1-1.78-.1.88.88,0,0,1,.84-.84,1,1,0,0,0,.24,0A.89.89,0,0,1,441,100.42Z"/><path class="cls-2" d="M518.05,29.07a1.14,1.14,0,0,0-.64.87l-1.7,11.83-10.64,9.5,0,0,0,0s0,0-.05,0l0,.05,0,.07,0,0,0,.07,0,.05s0,0,0,.08l0,0s0,.06,0,.09,0,0,0,0l-1.76,12.26a1.12,1.12,0,0,0,.56,1.15l23.89,13.8a1.13,1.13,0,0,0,1.07,0,1.17,1.17,0,0,0,.5-.46,1.11,1.11,0,0,0,.14-.41L530.8,66.5,541.43,57l.08-.07h0l.16-.21h0a.93.93,0,0,0,.12-.33h0a.24.24,0,0,0,0-.08l1.76-12.25a1.15,1.15,0,0,0-.56-1.16L519.12,29.1A1.13,1.13,0,0,0,518.05,29.07Zm10.42,37.46-1.41,9.8L505.31,63.77l1.42-9.8Zm10.25-10.19-9.15,8.17-12.25-7.08a5.21,5.21,0,0,1,.56-.77.66.66,0,0,0,.12-.17,1.15,1.15,0,0,0-1.86-1.33,8.85,8.85,0,0,0-.81,1.12l-7.55-4.35,9.15-8.17,10.94,6.32,0,0a5.66,5.66,0,0,1-1.28,1.35,1.14,1.14,0,0,0-.22,1.61,1.16,1.16,0,0,0,1.61.22,8,8,0,0,0,1.79-1.88l0-.08.06-.11Zm2.47-11.84-1.41,9.8L518,41.74l1.41-9.8Z"/><path class="cls-2" d="M521.06,69.3a1,1,0,0,0,.23-.28,1.16,1.16,0,0,0-.13-1.34l-.76-.86a1.15,1.15,0,1,0-1.72,1.53l.76.86A1.15,1.15,0,0,0,521.06,69.3Z"/><path class="cls-2" d="M522.76,52.52a8.38,8.38,0,0,0-2.13.08,1.15,1.15,0,1,0,.39,2.27,5.57,5.57,0,0,1,1.53-.06l.47,0a1.16,1.16,0,0,0,1-.57,1.21,1.21,0,0,0,.15-.54,1.16,1.16,0,0,0-1.11-1.19Z"/><path class="cls-2" d="M531,47.1a1.19,1.19,0,0,0,.15-.62,7.79,7.79,0,0,0-.56-2.57,1.15,1.15,0,0,0-2.13.88,5.22,5.22,0,0,1,.39,1.79,1.15,1.15,0,0,0,2.15.52Z"/><path class="cls-2" d="M517.26,65.14a1.1,1.1,0,0,0,.32-.36,1.16,1.16,0,0,0-.06-1.25,5.31,5.31,0,0,1-.82-1.65,1.15,1.15,0,1,0-2.2.65,7.37,7.37,0,0,0,1.16,2.35A1.15,1.15,0,0,0,517.26,65.14Z"/><path class="cls-2" d="M527.66,41.6a1.14,1.14,0,0,0,.27-.31,1.17,1.17,0,0,0-.11-1.31l-.73-.88a1.15,1.15,0,1,0-1.77,1.46l.73.88A1.14,1.14,0,0,0,527.66,41.6Z"/></g></g></svg>