<svg xmlns="http://www.w3.org/2000/svg" viewBox="0 0 888.36 888.26"><defs><style>.cls-1{fill:#cf7fb7;}.cls-10,.cls-11,.cls-12,.cls-13,.cls-14,.cls-15,.cls-16,.cls-17,.cls-18,.cls-19,.cls-2,.cls-20,.cls-21,.cls-22,.cls-23,.cls-3,.cls-4,.cls-5,.cls-6,.cls-7,.cls-8,.cls-9{fill:#a00071;}.cls-3,.cls-4,.cls-5{stroke:#cf7fb7;stroke-miterlimit:10;}.cls-3{stroke-width:4px;}.cls-4{stroke-width:59px;}.cls-5{stroke-width:11px;}.cls-10,.cls-11,.cls-12,.cls-13,.cls-14,.cls-15,.cls-16,.cls-17,.cls-18,.cls-19,.cls-20,.cls-21,.cls-22,.cls-23,.cls-6,.cls-7,.cls-8,.cls-9{isolation:isolate;font-family:Lobster;}.cls-6{font-size:48.93px;}.cls-7{font-size:48.66px;}.cls-8{font-size:48.95px;}.cls-9{font-size:48.88px;}.cls-10{font-size:49.05px;}.cls-11{font-size:48.95px;}.cls-12{font-size:49.01px;}.cls-13{font-size:48.94px;}.cls-14{font-size:48.86px;}.cls-15{font-size:48.91px;}.cls-16{font-size:48.88px;}.cls-17{font-size:49.19px;}.cls-18{font-size:48.9px;}.cls-19{font-size:49.01px;}.cls-20{font-size:48.8px;}.cls-21{font-size:49.15px;}.cls-22{font-size:49.04px;}.cls-23{font-size:49.09px;}</style></defs><g id="Layer_2" data-name="Layer 2"><g id="Layer_1-2" data-name="Layer 1"><g id="Layer_2-2" data-name="Layer 2"><g id="Layer_4" data-name="Layer 4"><ellipse class="cls-1" cx="444.18" cy="444.13" rx="444.18" ry="444.13"/><ellipse class="cls-2" cx="444.2" cy="444.13" rx="305.35" ry="305.31"/><ellipse class="cls-3" cx="442.11" cy="444.13" rx="276.35" ry="274.47"/><ellipse class="cls-4" cx="442.86" cy="444.13" rx="223.57" ry="222.05"/><ellipse class="cls-5" cx="442.76" cy="444.21" rx="172.76" ry="171.59"/></g><g id="Layer_6" data-name="Layer 6"><path class="cls-2" d="M836.45,453.43a1,1,0,1,0,.44,1.35,1.08,1.08,0,0,0,.1-.35A1,1,0,0,0,836.45,453.43Z"/><path class="cls-2" d="M834.73,438.68,795,441.84a1,1,0,0,0-.93,1.06v0l2.49,31.27a1,1,0,0,0,1.06.93h0L837.38,472a1,1,0,0,0,.94-1v-.05l-1-12.06a1,1,0,0,0-1.06-.93h0a1,1,0,0,0-.93,1.06v0l.83,10.45L822.54,456.3a1,1,0,0,0-.78-.29,1,1,0,0,0-.73.41l-6.14,8.15-5-4.78a1.1,1.1,0,0,0-.77-.28,1,1,0,0,0-.73.39l-9.91,12.57-2.29-28.69,37.69-3,.72,9a1,1,0,0,0,1.06.93h0a1,1,0,0,0,.94-1v0l-.8-10a1,1,0,0,0-1.05-.94ZM822,458.56,834,470.2,811.88,472ZM809.29,462l4.37,4.17-4.48,6-8.41.67Z"/><path class="cls-2" d="M817.17,450.57a5.47,5.47,0,1,0-5,5.88h0A5.47,5.47,0,0,0,817.17,450.57ZM812,454.43a3.44,3.44,0,1,1,3.16-3.7A3.45,3.45,0,0,1,812,454.43Z"/><path class="cls-2" d="M836.18,433.47,792.77,437a4.26,4.26,0,0,0-3.9,4.56l2.79,35a4.25,4.25,0,0,0,4.56,3.89L839.64,477a4.26,4.26,0,0,0,3.89-4.57l-2.78-35a4.25,4.25,0,0,0-4.56-3.92Zm5.32,39a2.2,2.2,0,0,1-2,2.38L796,478.32a2.23,2.23,0,0,1-2.38-2l-2.78-35a2.2,2.2,0,0,1,2-2.37l43.41-3.46a2.2,2.2,0,0,1,2.38,2Z"/><path class="cls-2" d="M220.44,760.86a1,1,0,0,0,1.18.08,1,1,0,1,0-1.15-1.63.92.92,0,0,0-.35.43A1,1,0,0,0,220.44,760.86Z"/><path class="cls-2" d="M219,775.63,258.46,781a1,1,0,0,0,1.14-.84v0L263.81,749a1,1,0,0,0-.84-1.14h0l-39.48-5.34a1,1,0,0,0-1.14.83v0l-1.62,12a1,1,0,0,0,2,.27l1.41-10.39L234.63,761a1,1,0,0,0,.71.44,1,1,0,0,0,.8-.23l7.73-6.67,3.87,5.73a1,1,0,0,0,1.38.29l.11-.08,12.35-10.17-3.86,28.51-37.46-5.07,1.21-9a1,1,0,0,0-2-.27l-1.35,10a1,1,0,0,0,.78,1.18ZM235.68,759l-9.33-14,22,3Zm13.12-.71-3.38-5,5.64-4.88,8.36,1.13Z"/><path class="cls-2" d="M238.66,767.74a5.47,5.47,0,1,0,6.16-4.68A5.47,5.47,0,0,0,238.66,767.74Zm5.88-2.67a3.44,3.44,0,1,1-3.86,3v0a3.45,3.45,0,0,1,3.86-2.94Z"/><path class="cls-2" d="M216.46,780.42l43.16,5.84a4.25,4.25,0,0,0,4.77-3.64l4.7-34.76a4.24,4.24,0,0,0-3.63-4.77l-43.16-5.84a4.25,4.25,0,0,0-4.77,3.64l-4.71,34.76A4.26,4.26,0,0,0,216.46,780.42Zm3.08-39.26a2.2,2.2,0,0,1,2.47-1.89h0l43.16,5.83a2.22,2.22,0,0,1,1.9,2.49l-4.71,34.76a2.2,2.2,0,0,1-2.47,1.89h0l-43.16-5.84a2.2,2.2,0,0,1-1.89-2.44Z"/><path class="cls-2" d="M279.47,99.7a1,1,0,1,0,1.09.9,1,1,0,0,0-.09-.33A1,1,0,0,0,279.47,99.7Z"/><path class="cls-2" d="M270,88.21l-31.72,24.1a1,1,0,0,0-.23,1.4l0,0,19,25a1,1,0,0,0,1.4.21l0,0,31.72-24.1a1,1,0,0,0,.21-1.4l0,0-7.32-9.64a1,1,0,0,0-1.62,1.23h0l6.35,8.35-18.55-3.7a1,1,0,0,0-1.21.92l-.76,10.18-6.79-1.32a1,1,0,0,0-1.19.76.68.68,0,0,0,0,.14l-1.56,15.93-17.41-22.91,30.11-22.88L276,97.68a1,1,0,1,0,1.62-1.23l-6.09-8a1,1,0,0,0-1.39-.28Zm0,23.63,16.44,3.28L268.8,128.56Zm-8.79,9.77,5.93,1.15-.55,7.44-6.72,5.11Z"/><path class="cls-2" d="M261.7,107.7a5.47,5.47,0,1,0-1,7.67h0A5.48,5.48,0,0,0,261.7,107.7Zm-2.27,6a3.44,3.44,0,1,1,.54-4.84.86.86,0,0,0,.07.1,3.44,3.44,0,0,1-.61,4.78Z"/><path class="cls-2" d="M268.47,83l-34.68,26.35a4.25,4.25,0,0,0-.81,5.94l21.22,27.93a4.25,4.25,0,0,0,5.95.81l34.67-26.35a4.24,4.24,0,0,0,.82-5.93h0L274.41,83.85A4.25,4.25,0,0,0,268.47,83ZM294,113a2.21,2.21,0,0,1-.43,3.09l-34.67,26.35a2.21,2.21,0,0,1-3.1-.42h0L234.6,114.13a2.2,2.2,0,0,1,.41-3.08h0L269.7,84.69a2.2,2.2,0,0,1,3.08.41h0Z"/></g><g id="Layer_7" data-name="Layer 7"><text class="cls-6" transform="matrix(-0.34, 0.94, -0.94, -0.34, 784.79, 551.33)">S</text><text class="cls-7" transform="translate(775.59 577) rotate(113.73)">k</text><text class="cls-8" transform="matrix(-0.46, 0.89, -0.89, -0.46, 765.54, 599.69)">y</text><text class="cls-9" transform="matrix(-0.54, 0.84, -0.84, -0.54, 750.14, 628.15)">•</text><text class="cls-10" transform="translate(738.93 645.61) rotate(126.07)">•</text><text class="cls-8" transform="translate(726.73 662.39) rotate(129.44)">•</text><text class="cls-8" transform="translate(713.54 678.44) rotate(132.79)">•</text><text class="cls-8" transform="translate(699.47 693.66) rotate(136.13)">•</text><text class="cls-11" transform="translate(684.52 708.06) rotate(139.46)">•</text><text class="cls-8" transform="translate(668.7 721.53) rotate(142.43)">•</text><text class="cls-12" transform="translate(652.23 734.15) rotate(145.99)">•</text><text class="cls-13" transform="translate(635.05 745.76) rotate(149.33)">•</text><text class="cls-8" transform="translate(617.2 756.37) rotate(152.65)">•</text><text class="cls-14" transform="translate(598.79 765.91) rotate(155.75)">•</text><text class="cls-8" transform="matrix(-0.94, 0.35, -0.35, -0.94, 579.84, 774.37)">•</text><text class="cls-8" transform="translate(560.43 781.7) rotate(162.71)">•</text><text class="cls-15" transform="matrix(-0.97, 0.24, -0.24, -0.97, 540.63, 787.87)">•</text><text class="cls-8" transform="translate(520.48 792.89) rotate(169.41)">•</text><text class="cls-16" transform="translate(500.08 796.72) rotate(172.52)">•</text><text class="cls-8" transform="translate(469.26 800.33) rotate(178.3)">G</text><text class="cls-8" transform="translate(441.59 801.13) rotate(-177.48)">a</text><text class="cls-8" transform="translate(416.33 799.86) rotate(-174.45)">l</text><text class="cls-16" transform="translate(403.63 798.64) rotate(-172.52)">l</text><text class="cls-8" transform="matrix(-0.98, -0.17, 0.17, -0.98, 391.01, 797.03)">e</text><text class="cls-8" transform="translate(372.93 793.82) rotate(-167.03)">r</text><text class="cls-8" transform="translate(355.44 789.87) rotate(-163.84)">y</text><text class="cls-8" transform="translate(187.01 691.82) rotate(-131.62)">S</text><text class="cls-8" transform="matrix(-0.61, -0.79, 0.79, -0.61, 168.92, 671.39)">k</text><text class="cls-12" transform="translate(153.83 651.7) rotate(-124.01)">y</text><text class="cls-8" transform="translate(136.21 624.55) rotate(-118.73)">•</text><text class="cls-8" transform="translate(126.22 606.36) rotate(-115.39)">•</text><text class="cls-8" transform="translate(117.31 587.6) rotate(-112.03)">•</text><text class="cls-8" transform="matrix(-0.32, -0.95, 0.95, -0.32, 109.51, 568.37)">•</text><text class="cls-8" transform="translate(102.86 548.75) rotate(-105.32)">•</text><text class="cls-8" transform="translate(97.36 528.71) rotate(-101.96)">•</text><text class="cls-8" transform="translate(93.04 508.43) rotate(-98.62)">•</text><text class="cls-8" transform="matrix(-0.09, -1, 1, -0.09, 89.92, 487.9)">•</text><text class="cls-8" transform="translate(87.99 467.27) rotate(-91.96)">•</text><text class="cls-8" transform="translate(87.27 446.5) rotate(-88.64)">•</text><text class="cls-8" transform="translate(87.75 425.75) rotate(-85.32)">•</text><text class="cls-8" transform="translate(89.43 405.08) rotate(-82.01)">•</text><text class="cls-8" transform="matrix(0.2, -0.98, 0.98, 0.2, 92.3, 384.53)">•</text><text class="cls-8" transform="matrix(0.25, -0.97, 0.97, 0.25, 96.35, 364.16)">•</text><text class="cls-8" transform="matrix(0.31, -0.95, 0.95, 0.31, 101.57, 344.09)">•</text><text class="cls-8" transform="matrix(0.36, -0.93, 0.93, 0.36, 107.95, 324.34)">•</text><text class="cls-8" transform="translate(119.49 295.52) rotate(-63.18)">G</text><text class="cls-17" transform="matrix(0.52, -0.86, 0.86, 0.52, 131.99, 270.83)">a</text><text class="cls-8" transform="matrix(0.56, -0.83, 0.83, 0.56, 145.17, 249.27)">l</text><text class="cls-10" transform="translate(152.33 238.7) rotate(-53.93)">l</text><text class="cls-8" transform="translate(159.78 228.4) rotate(-51.27)">e</text><text class="cls-18" transform="matrix(0.66, -0.75, 0.75, 0.66, 171.27, 214.07)">r</text><text class="cls-8" transform="translate(183.13 200.63) rotate(-45.12)">y</text><text class="cls-8" transform="translate(349.9 99.67) rotate(-13.04)">S</text><text class="cls-19" transform="translate(376.49 93.54) rotate(-8.62)">k</text><text class="cls-8" transform="translate(401 89.75) rotate(-5.09)">y</text><text class="cls-8" transform="translate(433.29 87.35)">•</text><text class="cls-8" transform="matrix(1, 0.06, -0.06, 1, 454.04, 87.33)">•</text><text class="cls-8" transform="matrix(0.99, 0.12, -0.12, 0.99, 474.76, 88.52)">•</text><text class="cls-8" transform="matrix(0.98, 0.17, -0.17, 0.98, 495.36, 90.9)">•</text><text class="cls-20" transform="translate(515.83 94.47) rotate(13.34)">•</text><text class="cls-8" transform="translate(536.01 99.21) rotate(16.57)">•</text><text class="cls-8" transform="translate(555.91 105.11) rotate(19.89)">•</text><text class="cls-8" transform="translate(575.42 112.16) rotate(23.22)">•</text><text class="cls-8" transform="translate(594.52 120.33) rotate(26.56)">•</text><text class="cls-8" transform="matrix(0.87, 0.5, -0.5, 0.87, 613.09, 129.6)">•</text><text class="cls-21" transform="translate(631.08 139.93) rotate(33.22)">•</text><text class="cls-8" transform="matrix(0.8, 0.6, -0.6, 0.8, 648.42, 151.29)">•</text><text class="cls-8" transform="matrix(0.77, 0.64, -0.64, 0.77, 665.08, 163.65)">•</text><text class="cls-8" transform="matrix(0.73, 0.69, -0.69, 0.73, 681, 176.98)">•</text><text class="cls-8" transform="translate(696.1 191.2) rotate(46.66)">•</text><text class="cls-8" transform="matrix(0.64, 0.77, -0.77, 0.64, 710.36, 206.29)">•</text><text class="cls-8" transform="matrix(0.57, 0.82, -0.82, 0.57, 730.11, 230.27)">G</text><text class="cls-13" transform="translate(745.79 253.07) rotate(59.33)">a</text><text class="cls-22" transform="translate(758.44 274.98) rotate(62.67)">l</text><text class="cls-8" transform="translate(764.29 286.3) rotate(64.74)">l</text><text class="cls-15" transform="translate(769.77 297.75) rotate(67.03)">e</text><text class="cls-6" transform="matrix(0.34, 0.94, -0.94, 0.34, 776.88, 314.69)">r</text><text class="cls-23" transform="matrix(0.29, 0.96, -0.96, 0.29, 783.02, 331.53)">y</text></g></g></g></g></svg>