<svg xmlns="http://www.w3.org/2000/svg" viewBox="0 0 888.37 888.37"><defs><style>.cls-1{fill:#cf7fb7;}.cls-2{fill:#a00071;}</style></defs><g id="Layer_2" data-name="Layer 2"><g id="Layer_4" data-name="Layer 4"><path class="cls-1" d="M33.86,274.19a442.69,442.69,0,0,0-33.7,170H444.21Z"/><path class="cls-1" d="M130.22,130.17l314,314-170-410.35A442.73,442.73,0,0,0,130.22,130.17Z"/><path class="cls-1" d="M614.14,33.91l0-.1a442.69,442.69,0,0,0-170-33.7V444.16L614.14,33.91Z"/><path class="cls-1" d="M758.2,130.17l-314,314,410.35-170A442.52,442.52,0,0,0,758.2,130.17Z"/><path class="cls-1" d="M854.51,614.18a442.69,442.69,0,0,0,33.7-170h-444Z"/><path class="cls-1" d="M614.09,854.46l0,.1a442.73,442.73,0,0,0,144-96.36l-314-314L614.09,854.46Z"/><path class="cls-1" d="M444.16,888.26v-444l-170,410.35A442.69,442.69,0,0,0,444.16,888.26Z"/><path class="cls-1" d="M130.17,758.2l314-314-410.35,170A442.52,442.52,0,0,0,130.17,758.2Z"/><path class="cls-2" d="M33.91,614.14,444.16,444.21H0A442.74,442.74,0,0,0,33.91,614.14Z"/><path class="cls-2" d="M34,274.23,444.21,444.16,130.14,130.09A442.7,442.7,0,0,0,34,274.23Z"/><path class="cls-2" d="M274.28,33.91,444.21,444.16V0A442.78,442.78,0,0,0,274.28,33.91Z"/><path class="cls-2" d="M758.28,130.09A442.7,442.7,0,0,0,614.14,33.91h0L444.21,444.16l314-314Z"/><path class="cls-2" d="M854.46,274.23,444.21,444.16H888.37A442.74,442.74,0,0,0,854.46,274.23Z"/><path class="cls-2" d="M854.41,614.14,444.16,444.21,758.22,758.28A442.72,442.72,0,0,0,854.41,614.14Z"/><path class="cls-2" d="M444.16,888.37a442.78,442.78,0,0,0,169.93-33.91h0L444.16,444.21V888.37Z"/><path class="cls-2" d="M130.09,758.28a442.7,442.7,0,0,0,144.14,96.18L444.16,444.21l-314,314Z"/></g></g></svg>